
<svg width="1440" height="880" viewBox="0 0 1440 880" fill="none" xmlns="http://www.w3.org/2000/svg">
<g clip-path="url(#clip0_1852_26763)">
<mask id="path-1-inside-1_1852_26763" fill="white">
<path d="M0 0H110.769V93H0V0Z"/>
</mask>
<path d="M0 0H110.769V93H0V0Z" fill="white"/>
<path d="M110.769 92H0V94H110.769V92Z" fill="white" mask="url(#path-1-inside-1_1852_26763)"/>
<mask id="path-3-inside-2_1852_26763" fill="white">
<path d="M0 93H110.769V186H0V93Z"/>
</mask>
<path d="M0 93H110.769V186H0V93Z" fill="white"/>
<path d="M110.769 185H0V187H110.769V185Z" fill="white" mask="url(#path-3-inside-2_1852_26763)"/>
<mask id="path-5-inside-3_1852_26763" fill="white">
<path d="M0 186H110.769V279H0V186Z"/>
</mask>
<path d="M0 186H110.769V279H0V186Z" fill="white"/>
<path d="M110.769 278H0V280H110.769V278Z" fill="white" mask="url(#path-5-inside-3_1852_26763)"/>
<mask id="path-7-inside-4_1852_26763" fill="white">
<path d="M0 279H110.769V372H0V279Z"/>
</mask>
<path d="M0 279H110.769V372H0V279Z" fill="white"/>
<path d="M110.769 371H0V373H110.769V371Z" fill="white" mask="url(#path-7-inside-4_1852_26763)"/>
<mask id="path-9-inside-5_1852_26763" fill="white">
<path d="M0 372H110.769V465H0V372Z"/>
</mask>
<path d="M0 372H110.769V465H0V372Z" fill="white"/>
<path d="M110.769 464H0V466H110.769V464Z" fill="white" mask="url(#path-9-inside-5_1852_26763)"/>
<mask id="path-11-inside-6_1852_26763" fill="white">
<path d="M0 465H110.769V558H0V465Z"/>
</mask>
<path d="M0 465H110.769V558H0V465Z" fill="white"/>
<path d="M110.769 557H0V559H110.769V557Z" fill="white" mask="url(#path-11-inside-6_1852_26763)"/>
<mask id="path-13-inside-7_1852_26763" fill="white">
<path d="M0 558H110.769V651H0V558Z"/>
</mask>
<path d="M0 558H110.769V651H0V558Z" fill="white"/>
<path d="M110.769 650H0V652H110.769V650Z" fill="white" mask="url(#path-13-inside-7_1852_26763)"/>
<mask id="path-15-inside-8_1852_26763" fill="white">
<path d="M0 651H110.769V744H0V651Z"/>
</mask>
<path d="M0 651H110.769V744H0V651Z" fill="white"/>
<path d="M110.769 743H0V745H110.769V743Z" fill="white" mask="url(#path-15-inside-8_1852_26763)"/>
<mask id="path-17-inside-9_1852_26763" fill="white">
<path d="M0 744H110.769V837H0V744Z"/>
</mask>
<path d="M0 744H110.769V837H0V744Z" fill="white"/>
<path d="M110.769 836H0V838H110.769V836Z" fill="white" mask="url(#path-17-inside-9_1852_26763)"/>
</g>
<path d="M110.77 0H221.539V93H110.77V0Z" fill="white"/>
<mask id="path-20-inside-10_1852_26763" fill="white">
<path d="M110.77 93H221.539V186H110.77V93Z"/>
</mask>
<path d="M110.77 93H221.539V186H110.77V93Z" fill="white"/>
<path d="M221.539 185H110.77V187H221.539V185Z" fill="#FCFAFF" mask="url(#path-20-inside-10_1852_26763)"/>
<mask id="path-22-inside-11_1852_26763" fill="white">
<path d="M110.77 186H221.539V279H110.77V186Z"/>
</mask>
<path d="M110.77 186H221.539V279H110.77V186Z" fill="white"/>
<path d="M221.539 278H110.77V280H221.539V278Z" fill="#FCFAFF" mask="url(#path-22-inside-11_1852_26763)"/>
<mask id="path-24-inside-12_1852_26763" fill="white">
<path d="M110.77 279H221.539V372H110.77V279Z"/>
</mask>
<path d="M110.77 279H221.539V372H110.77V279Z" fill="white"/>
<path d="M221.539 371H110.77V373H221.539V371Z" fill="#FCFAFF" mask="url(#path-24-inside-12_1852_26763)"/>
<mask id="path-26-inside-13_1852_26763" fill="white">
<path d="M110.77 372H221.539V465H110.77V372Z"/>
</mask>
<path d="M110.77 372H221.539V465H110.77V372Z" fill="#FCFAFF"/>
<path d="M221.539 464H110.77V466H221.539V464Z" fill="#FCFAFF" mask="url(#path-26-inside-13_1852_26763)"/>
<mask id="path-28-inside-14_1852_26763" fill="white">
<path d="M110.77 465H221.539V558H110.77V465Z"/>
</mask>
<path d="M110.77 465H221.539V558H110.77V465Z" fill="white"/>
<path d="M221.539 557H110.77V559H221.539V557Z" fill="#FCFAFF" mask="url(#path-28-inside-14_1852_26763)"/>
<mask id="path-30-inside-15_1852_26763" fill="white">
<path d="M110.77 558H221.539V651H110.77V558Z"/>
</mask>
<path d="M110.77 558H221.539V651H110.77V558Z" fill="white"/>
<path d="M221.539 650H110.77V652H221.539V650Z" fill="#FCFAFF" mask="url(#path-30-inside-15_1852_26763)"/>
<path d="M110.77 651H221.539V744H110.77V651Z" fill="white"/>
<mask id="path-33-inside-16_1852_26763" fill="white">
<path d="M110.77 744H221.539V837H110.77V744Z"/>
</mask>
<path d="M110.77 744H221.539V837H110.77V744Z" fill="white"/>
<path d="M221.539 836H110.77V838H221.539V836Z" fill="#FCFAFF" mask="url(#path-33-inside-16_1852_26763)"/>
<g clip-path="url(#clip1_1852_26763)">
<rect x="221.539" width="110.769" height="1024" fill="white"/>
<path d="M221.539 0H332.308V72H221.539V0Z" fill="white"/>
<mask id="path-38-inside-17_1852_26763" fill="white">
<path d="M221.539 72H332.308V144H221.539V72Z"/>
</mask>
<path d="M221.539 72H332.308V144H221.539V72Z" fill="white"/>
<path d="M332.308 143H221.539V145H332.308V143Z" fill="#FCFAFF" mask="url(#path-38-inside-17_1852_26763)"/>
<mask id="path-40-inside-18_1852_26763" fill="white">
<path d="M221.539 144H332.308V216H221.539V144Z"/>
</mask>
<path d="M221.539 144H332.308V216H221.539V144Z" fill="white"/>
<path d="M332.308 215H221.539V217H332.308V215Z" fill="#FCFAFF" mask="url(#path-40-inside-18_1852_26763)"/>
<mask id="path-42-inside-19_1852_26763" fill="white">
<path d="M221.539 216H332.308V288H221.539V216Z"/>
</mask>
<path d="M221.539 216H332.308V288H221.539V216Z" fill="white"/>
<path d="M332.308 287H221.539V289H332.308V287Z" fill="#FCFAFF" mask="url(#path-42-inside-19_1852_26763)"/>
<mask id="path-44-inside-20_1852_26763" fill="white">
<path d="M221.539 288H332.308V360H221.539V288Z"/>
</mask>
<path d="M221.539 288H332.308V360H221.539V288Z" fill="white"/>
<path d="M332.308 359H221.539V361H332.308V359Z" fill="#FCFAFF" mask="url(#path-44-inside-20_1852_26763)"/>
<mask id="path-46-inside-21_1852_26763" fill="white">
<path d="M221.539 360H332.308V432H221.539V360Z"/>
</mask>
<path d="M221.539 360H332.308V432H221.539V360Z" fill="white"/>
<path d="M332.308 431H221.539V433H332.308V431Z" fill="#FCFAFF" mask="url(#path-46-inside-21_1852_26763)"/>
<mask id="path-48-inside-22_1852_26763" fill="white">
<path d="M221.539 432H332.308V504H221.539V432Z"/>
</mask>
<path d="M221.539 432H332.308V504H221.539V432Z" fill="white"/>
<path d="M332.308 503H221.539V505H332.308V503Z" fill="#FCFAFF" mask="url(#path-48-inside-22_1852_26763)"/>
<mask id="path-50-inside-23_1852_26763" fill="white">
<path d="M221.539 504H332.308V576H221.539V504Z"/>
</mask>
<path d="M221.539 504H332.308V576H221.539V504Z" fill="white"/>
<path d="M332.308 575H221.539V577H332.308V575Z" fill="#FCFAFF" mask="url(#path-50-inside-23_1852_26763)"/>
<mask id="path-52-inside-24_1852_26763" fill="white">
<path d="M221.539 576H332.308V648H221.539V576Z"/>
</mask>
<path d="M221.539 576H332.308V648H221.539V576Z" fill="white"/>
<path d="M332.308 647H221.539V649H332.308V647Z" fill="#FCFAFF" mask="url(#path-52-inside-24_1852_26763)"/>
<mask id="path-54-inside-25_1852_26763" fill="white">
<path d="M221.539 648H332.308V720H221.539V648Z"/>
</mask>
<path d="M221.539 648H332.308V720H221.539V648Z" fill="white"/>
<path d="M332.308 719H221.539V721H332.308V719Z" fill="#FCFAFF" mask="url(#path-54-inside-25_1852_26763)"/>
<mask id="path-56-inside-26_1852_26763" fill="white">
<path d="M221.539 720H332.308V792H221.539V720Z"/>
</mask>
<path d="M221.539 720H332.308V792H221.539V720Z" fill="white"/>
<path d="M332.308 791H221.539V793H332.308V791Z" fill="#FCFAFF" mask="url(#path-56-inside-26_1852_26763)"/>
</g>
<rect x="222.039" y="0.5" width="109.769" height="1023" stroke="#F6F8FB"/>
<mask id="path-58-inside-27_1852_26763" fill="white">
<path d="M332.309 0H443.078V93H332.309V0Z"/>
</mask>
<path d="M332.309 0H443.078V93H332.309V0Z" fill="white"/>
<path d="M443.078 92H332.309V94H443.078V92Z" fill="#FCFAFF" mask="url(#path-58-inside-27_1852_26763)"/>
<mask id="path-60-inside-28_1852_26763" fill="white">
<path d="M332.309 93H443.078V186H332.309V93Z"/>
</mask>
<path d="M332.309 93H443.078V186H332.309V93Z" fill="#FCFAFF"/>
<path d="M443.078 185H332.309V187H443.078V185Z" fill="#FCFAFF" mask="url(#path-60-inside-28_1852_26763)"/>
<mask id="path-62-inside-29_1852_26763" fill="white">
<path d="M332.309 186H443.078V279H332.309V186Z"/>
</mask>
<path d="M332.309 186H443.078V279H332.309V186Z" fill="white"/>
<path d="M443.078 278H332.309V280H443.078V278Z" fill="#FCFAFF" mask="url(#path-62-inside-29_1852_26763)"/>
<mask id="path-64-inside-30_1852_26763" fill="white">
<path d="M332.309 279H443.078V372H332.309V279Z"/>
</mask>
<path d="M332.309 279H443.078V372H332.309V279Z" fill="white"/>
<path d="M443.078 371H332.309V373H443.078V371Z" fill="#FCFAFF" mask="url(#path-64-inside-30_1852_26763)"/>
<mask id="path-66-inside-31_1852_26763" fill="white">
<path d="M332.309 372H443.078V465H332.309V372Z"/>
</mask>
<path d="M332.309 372H443.078V465H332.309V372Z" fill="white"/>
<path d="M443.078 464H332.309V466H443.078V464Z" fill="#FCFAFF" mask="url(#path-66-inside-31_1852_26763)"/>
<mask id="path-68-inside-32_1852_26763" fill="white">
<path d="M332.309 465H443.078V558H332.309V465Z"/>
</mask>
<path d="M332.309 465H443.078V558H332.309V465Z" fill="white"/>
<path d="M443.078 557H332.309V559H443.078V557Z" fill="#FCFAFF" mask="url(#path-68-inside-32_1852_26763)"/>
<mask id="path-70-inside-33_1852_26763" fill="white">
<path d="M332.309 558H443.078V651H332.309V558Z"/>
</mask>
<path d="M332.309 558H443.078V651H332.309V558Z" fill="white"/>
<path d="M443.078 650H332.309V652H443.078V650Z" fill="#FCFAFF" mask="url(#path-70-inside-33_1852_26763)"/>
<mask id="path-72-inside-34_1852_26763" fill="white">
<path d="M332.309 651H443.078V744H332.309V651Z"/>
</mask>
<path d="M332.309 651H443.078V744H332.309V651Z" fill="white"/>
<path d="M443.078 743H332.309V745H443.078V743Z" fill="#FCFAFF" mask="url(#path-72-inside-34_1852_26763)"/>
<mask id="path-74-inside-35_1852_26763" fill="white">
<path d="M332.309 744H443.078V837H332.309V744Z"/>
</mask>
<path d="M332.309 744H443.078V837H332.309V744Z" fill="white"/>
<path d="M443.078 836H332.309V838H443.078V836Z" fill="#FCFAFF" mask="url(#path-74-inside-35_1852_26763)"/>
<mask id="path-76-inside-36_1852_26763" fill="white">
<path d="M332.309 837H443.078V930H332.309V837Z"/>
</mask>
<path d="M332.309 837H443.078V930H332.309V837Z" fill="#FCFAFF"/>
<path d="M443.078 929H332.309V931H443.078V929Z" fill="#FCFAFF" mask="url(#path-76-inside-36_1852_26763)"/>
<g clip-path="url(#clip2_1852_26763)">
<rect x="443.078" width="110.769" height="1024" fill="white"/>
<mask id="path-80-inside-37_1852_26763" fill="white">
<path d="M443.078 0H553.847V72H443.078V0Z"/>
</mask>
<path d="M443.078 0H553.847V72H443.078V0Z" fill="white"/>
<path d="M553.847 71H443.078V73H553.847V71Z" fill="#FCFAFF" mask="url(#path-80-inside-37_1852_26763)"/>
<mask id="path-82-inside-38_1852_26763" fill="white">
<path d="M443.078 72H553.847V144H443.078V72Z"/>
</mask>
<path d="M443.078 72H553.847V144H443.078V72Z" fill="white"/>
<path d="M553.847 143H443.078V145H553.847V143Z" fill="#FCFAFF" mask="url(#path-82-inside-38_1852_26763)"/>
<mask id="path-84-inside-39_1852_26763" fill="white">
<path d="M443.078 144H553.847V216H443.078V144Z"/>
</mask>
<path d="M443.078 144H553.847V216H443.078V144Z" fill="white"/>
<path d="M553.847 215H443.078V217H553.847V215Z" fill="#FCFAFF" mask="url(#path-84-inside-39_1852_26763)"/>
<mask id="path-86-inside-40_1852_26763" fill="white">
<path d="M443.078 216H553.847V288H443.078V216Z"/>
</mask>
<path d="M443.078 216H553.847V288H443.078V216Z" fill="white"/>
<path d="M553.847 287H443.078V289H553.847V287Z" fill="#FCFAFF" mask="url(#path-86-inside-40_1852_26763)"/>
<mask id="path-88-inside-41_1852_26763" fill="white">
<path d="M443.078 288H553.847V360H443.078V288Z"/>
</mask>
<path d="M443.078 288H553.847V360H443.078V288Z" fill="white"/>
<path d="M553.847 359H443.078V361H553.847V359Z" fill="#FCFAFF" mask="url(#path-88-inside-41_1852_26763)"/>
<mask id="path-90-inside-42_1852_26763" fill="white">
<path d="M443.078 360H553.847V432H443.078V360Z"/>
</mask>
<path d="M443.078 360H553.847V432H443.078V360Z" fill="white"/>
<path d="M553.847 431H443.078V433H553.847V431Z" fill="#FCFAFF" mask="url(#path-90-inside-42_1852_26763)"/>
<mask id="path-92-inside-43_1852_26763" fill="white">
<path d="M443.078 432H553.847V504H443.078V432Z"/>
</mask>
<path d="M443.078 432H553.847V504H443.078V432Z" fill="white"/>
<path d="M553.847 503H443.078V505H553.847V503Z" fill="#FCFAFF" mask="url(#path-92-inside-43_1852_26763)"/>
<mask id="path-94-inside-44_1852_26763" fill="white">
<path d="M443.078 504H553.847V576H443.078V504Z"/>
</mask>
<path d="M443.078 504H553.847V576H443.078V504Z" fill="white"/>
<path d="M553.847 575H443.078V577H553.847V575Z" fill="#FCFAFF" mask="url(#path-94-inside-44_1852_26763)"/>
<mask id="path-96-inside-45_1852_26763" fill="white">
<path d="M443.078 576H553.847V648H443.078V576Z"/>
</mask>
<path d="M443.078 576H553.847V648H443.078V576Z" fill="white"/>
<path d="M553.847 647H443.078V649H553.847V647Z" fill="#FCFAFF" mask="url(#path-96-inside-45_1852_26763)"/>
<mask id="path-98-inside-46_1852_26763" fill="white">
<path d="M443.078 648H553.847V720H443.078V648Z"/>
</mask>
<path d="M443.078 648H553.847V720H443.078V648Z" fill="white"/>
<path d="M553.847 719H443.078V721H553.847V719Z" fill="#FCFAFF" mask="url(#path-98-inside-46_1852_26763)"/>
<mask id="path-100-inside-47_1852_26763" fill="white">
<path d="M443.078 720H553.847V792H443.078V720Z"/>
</mask>
<path d="M443.078 720H553.847V792H443.078V720Z" fill="white"/>
<path d="M553.847 791H443.078V793H553.847V791Z" fill="#FCFAFF" mask="url(#path-100-inside-47_1852_26763)"/>
</g>
<rect x="443.578" y="0.5" width="109.769" height="1023" stroke="#F6F8FB"/>
<mask id="path-102-inside-48_1852_26763" fill="white">
<path d="M553.848 0H664.617V93H553.848V0Z"/>
</mask>
<path d="M553.848 0H664.617V93H553.848V0Z" fill="white"/>
<path d="M664.617 92H553.848V94H664.617V92Z" fill="#FCFAFF" mask="url(#path-102-inside-48_1852_26763)"/>
<mask id="path-104-inside-49_1852_26763" fill="white">
<path d="M553.848 93H664.617V186H553.848V93Z"/>
</mask>
<path d="M553.848 93H664.617V186H553.848V93Z" fill="white"/>
<path d="M664.617 185H553.848V187H664.617V185Z" fill="#FCFAFF" mask="url(#path-104-inside-49_1852_26763)"/>
<mask id="path-106-inside-50_1852_26763" fill="white">
<path d="M553.848 186H664.617V279H553.848V186Z"/>
</mask>
<path d="M553.848 186H664.617V279H553.848V186Z" fill="white"/>
<path d="M664.617 278H553.848V280H664.617V278Z" fill="#FCFAFF" mask="url(#path-106-inside-50_1852_26763)"/>
<mask id="path-108-inside-51_1852_26763" fill="white">
<path d="M553.848 279H664.617V372H553.848V279Z"/>
</mask>
<path d="M553.848 279H664.617V372H553.848V279Z" fill="#FCFAFF"/>
<path d="M664.617 371H553.848V373H664.617V371Z" fill="#FCFAFF" mask="url(#path-108-inside-51_1852_26763)"/>
<mask id="path-110-inside-52_1852_26763" fill="white">
<path d="M553.848 372H664.617V465H553.848V372Z"/>
</mask>
<path d="M553.848 372H664.617V465H553.848V372Z" fill="white"/>
<path d="M664.617 464H553.848V466H664.617V464Z" fill="#FCFAFF" mask="url(#path-110-inside-52_1852_26763)"/>
<mask id="path-112-inside-53_1852_26763" fill="white">
<path d="M553.848 465H664.617V558H553.848V465Z"/>
</mask>
<path d="M553.848 465H664.617V558H553.848V465Z" fill="white"/>
<path d="M664.617 557H553.848V559H664.617V557Z" fill="#FCFAFF" mask="url(#path-112-inside-53_1852_26763)"/>
<mask id="path-114-inside-54_1852_26763" fill="white">
<path d="M553.848 558H664.617V651H553.848V558Z"/>
</mask>
<path d="M553.848 558H664.617V651H553.848V558Z" fill="white"/>
<path d="M664.617 650H553.848V652H664.617V650Z" fill="#FCFAFF" mask="url(#path-114-inside-54_1852_26763)"/>
<mask id="path-116-inside-55_1852_26763" fill="white">
<path d="M553.848 651H664.617V744H553.848V651Z"/>
</mask>
<path d="M553.848 651H664.617V744H553.848V651Z" fill="white"/>
<path d="M664.617 743H553.848V745H664.617V743Z" fill="#FCFAFF" mask="url(#path-116-inside-55_1852_26763)"/>
<mask id="path-118-inside-56_1852_26763" fill="white">
<path d="M553.848 744H664.617V837H553.848V744Z"/>
</mask>
<path d="M553.848 744H664.617V837H553.848V744Z" fill="white"/>
<path d="M664.617 836H553.848V838H664.617V836Z" fill="#FCFAFF" mask="url(#path-118-inside-56_1852_26763)"/>
<g clip-path="url(#clip3_1852_26763)">
<rect x="664.617" width="110.769" height="1024" fill="white"/>
<mask id="path-122-inside-57_1852_26763" fill="white">
<path d="M664.617 0H775.386V72H664.617V0Z"/>
</mask>
<path d="M664.617 0H775.386V72H664.617V0Z" fill="white"/>
<path d="M775.386 71H664.617V73H775.386V71Z" fill="#FCFAFF" mask="url(#path-122-inside-57_1852_26763)"/>
<mask id="path-124-inside-58_1852_26763" fill="white">
<path d="M664.617 72H775.386V144H664.617V72Z"/>
</mask>
<path d="M664.617 72H775.386V144H664.617V72Z" fill="white"/>
<path d="M775.386 143H664.617V145H775.386V143Z" fill="#FCFAFF" mask="url(#path-124-inside-58_1852_26763)"/>
<mask id="path-126-inside-59_1852_26763" fill="white">
<path d="M664.617 144H775.386V216H664.617V144Z"/>
</mask>
<path d="M664.617 144H775.386V216H664.617V144Z" fill="white"/>
<path d="M775.386 215H664.617V217H775.386V215Z" fill="#FCFAFF" mask="url(#path-126-inside-59_1852_26763)"/>
<mask id="path-128-inside-60_1852_26763" fill="white">
<path d="M664.617 216H775.386V288H664.617V216Z"/>
</mask>
<path d="M664.617 216H775.386V288H664.617V216Z" fill="white"/>
<path d="M775.386 287H664.617V289H775.386V287Z" fill="#FCFAFF" mask="url(#path-128-inside-60_1852_26763)"/>
<mask id="path-130-inside-61_1852_26763" fill="white">
<path d="M664.617 288H775.386V360H664.617V288Z"/>
</mask>
<path d="M664.617 288H775.386V360H664.617V288Z" fill="white"/>
<path d="M775.386 359H664.617V361H775.386V359Z" fill="#FCFAFF" mask="url(#path-130-inside-61_1852_26763)"/>
<mask id="path-132-inside-62_1852_26763" fill="white">
<path d="M664.617 360H775.386V432H664.617V360Z"/>
</mask>
<path d="M664.617 360H775.386V432H664.617V360Z" fill="white"/>
<path d="M775.386 431H664.617V433H775.386V431Z" fill="#FCFAFF" mask="url(#path-132-inside-62_1852_26763)"/>
<mask id="path-134-inside-63_1852_26763" fill="white">
<path d="M664.617 432H775.386V504H664.617V432Z"/>
</mask>
<path d="M664.617 432H775.386V504H664.617V432Z" fill="white"/>
<path d="M775.386 503H664.617V505H775.386V503Z" fill="#FCFAFF" mask="url(#path-134-inside-63_1852_26763)"/>
<mask id="path-136-inside-64_1852_26763" fill="white">
<path d="M664.617 504H775.386V576H664.617V504Z"/>
</mask>
<path d="M664.617 504H775.386V576H664.617V504Z" fill="white"/>
<path d="M775.386 575H664.617V577H775.386V575Z" fill="#FCFAFF" mask="url(#path-136-inside-64_1852_26763)"/>
<mask id="path-138-inside-65_1852_26763" fill="white">
<path d="M664.617 576H775.386V648H664.617V576Z"/>
</mask>
<path d="M664.617 576H775.386V648H664.617V576Z" fill="white"/>
<path d="M775.386 647H664.617V649H775.386V647Z" fill="#FCFAFF" mask="url(#path-138-inside-65_1852_26763)"/>
<mask id="path-140-inside-66_1852_26763" fill="white">
<path d="M664.617 648H775.386V720H664.617V648Z"/>
</mask>
<path d="M664.617 648H775.386V720H664.617V648Z" fill="white"/>
<path d="M775.386 719H664.617V721H775.386V719Z" fill="#FCFAFF" mask="url(#path-140-inside-66_1852_26763)"/>
<mask id="path-142-inside-67_1852_26763" fill="white">
<path d="M664.617 720H775.386V792H664.617V720Z"/>
</mask>
<path d="M664.617 720H775.386V792H664.617V720Z" fill="white"/>
<path d="M775.386 791H664.617V793H775.386V791Z" fill="#FCFAFF" mask="url(#path-142-inside-67_1852_26763)"/>
</g>
<rect x="665.117" y="0.5" width="109.769" height="1023" stroke="#F6F8FB"/>
<g clip-path="url(#clip4_1852_26763)">
<mask id="path-144-inside-68_1852_26763" fill="white">
<path d="M775.383 0H886.152V1024H775.383V0Z"/>
</mask>
<path d="M775.383 0H886.152V1024H775.383V0Z" fill="white"/>
<mask id="path-146-inside-69_1852_26763" fill="white">
<path d="M775.383 0H886.152V93H775.383V0Z"/>
</mask>
<path d="M775.383 0H886.152V93H775.383V0Z" fill="#FCFAFF"/>
<path d="M886.152 92H775.383V94H886.152V92Z" fill="#FCFAFF" mask="url(#path-146-inside-69_1852_26763)"/>
<mask id="path-148-inside-70_1852_26763" fill="white">
<path d="M775.383 93H886.152V186H775.383V93Z"/>
</mask>
<path d="M775.383 93H886.152V186H775.383V93Z" fill="white"/>
<path d="M886.152 185H775.383V187H886.152V185Z" fill="#FCFAFF" mask="url(#path-148-inside-70_1852_26763)"/>
<mask id="path-150-inside-71_1852_26763" fill="white">
<path d="M775.383 186H886.152V279H775.383V186Z"/>
</mask>
<path d="M775.383 186H886.152V279H775.383V186Z" fill="white"/>
<path d="M886.152 278H775.383V280H886.152V278Z" fill="#FCFAFF" mask="url(#path-150-inside-71_1852_26763)"/>
<mask id="path-152-inside-72_1852_26763" fill="white">
<path d="M775.383 279H886.152V372H775.383V279Z"/>
</mask>
<path d="M775.383 279H886.152V372H775.383V279Z" fill="white"/>
<path d="M886.152 371H775.383V373H886.152V371Z" fill="#FCFAFF" mask="url(#path-152-inside-72_1852_26763)"/>
<mask id="path-154-inside-73_1852_26763" fill="white">
<path d="M775.383 372H886.152V465H775.383V372Z"/>
</mask>
<path d="M775.383 372H886.152V465H775.383V372Z" fill="white"/>
<path d="M886.152 464H775.383V466H886.152V464Z" fill="#FCFAFF" mask="url(#path-154-inside-73_1852_26763)"/>
<mask id="path-156-inside-74_1852_26763" fill="white">
<path d="M775.383 465H886.152V558H775.383V465Z"/>
</mask>
<path d="M775.383 465H886.152V558H775.383V465Z" fill="white"/>
<path d="M886.152 557H775.383V559H886.152V557Z" fill="#FCFAFF" mask="url(#path-156-inside-74_1852_26763)"/>
<mask id="path-158-inside-75_1852_26763" fill="white">
<path d="M775.383 558H886.152V651H775.383V558Z"/>
</mask>
<path d="M775.383 558H886.152V651H775.383V558Z" fill="white"/>
<path d="M886.152 650H775.383V652H886.152V650Z" fill="#FCFAFF" mask="url(#path-158-inside-75_1852_26763)"/>
<mask id="path-160-inside-76_1852_26763" fill="white">
<path d="M775.383 651H886.152V744H775.383V651Z"/>
</mask>
<path d="M775.383 651H886.152V744H775.383V651Z" fill="#FCFAFF"/>
<path d="M886.152 743H775.383V745H886.152V743Z" fill="#FCFAFF" mask="url(#path-160-inside-76_1852_26763)"/>
<mask id="path-162-inside-77_1852_26763" fill="white">
<path d="M775.383 744H886.152V837H775.383V744Z"/>
</mask>
<path d="M775.383 744H886.152V837H775.383V744Z" fill="white"/>
<path d="M886.152 836H775.383V838H886.152V836Z" fill="#FCFAFF" mask="url(#path-162-inside-77_1852_26763)"/>
</g>
<path d="M885.152 0V1024H887.152V0H885.152Z" fill="#F6F8FB" mask="url(#path-144-inside-68_1852_26763)"/>
<g clip-path="url(#clip5_1852_26763)">
<mask id="path-164-inside-78_1852_26763" fill="white">
<path d="M886.152 0H996.922V1024H886.152V0Z"/>
</mask>
<path d="M886.152 0H996.922V1024H886.152V0Z" fill="white"/>
<mask id="path-166-inside-79_1852_26763" fill="white">
<path d="M886.152 0H996.922V72H886.152V0Z"/>
</mask>
<path d="M886.152 0H996.922V72H886.152V0Z" fill="white"/>
<path d="M996.922 71H886.152V73H996.922V71Z" fill="#FCFAFF" mask="url(#path-166-inside-79_1852_26763)"/>
<mask id="path-168-inside-80_1852_26763" fill="white">
<path d="M886.152 72H996.922V144H886.152V72Z"/>
</mask>
<path d="M886.152 72H996.922V144H886.152V72Z" fill="white"/>
<path d="M996.922 143H886.152V145H996.922V143Z" fill="#FCFAFF" mask="url(#path-168-inside-80_1852_26763)"/>
<mask id="path-170-inside-81_1852_26763" fill="white">
<path d="M886.152 144H996.922V216H886.152V144Z"/>
</mask>
<path d="M886.152 144H996.922V216H886.152V144Z" fill="white"/>
<path d="M996.922 215H886.152V217H996.922V215Z" fill="#FCFAFF" mask="url(#path-170-inside-81_1852_26763)"/>
<mask id="path-172-inside-82_1852_26763" fill="white">
<path d="M886.152 216H996.922V288H886.152V216Z"/>
</mask>
<path d="M886.152 216H996.922V288H886.152V216Z" fill="white"/>
<path d="M996.922 287H886.152V289H996.922V287Z" fill="#FCFAFF" mask="url(#path-172-inside-82_1852_26763)"/>
<mask id="path-174-inside-83_1852_26763" fill="white">
<path d="M886.152 288H996.922V360H886.152V288Z"/>
</mask>
<path d="M886.152 288H996.922V360H886.152V288Z" fill="white"/>
<path d="M996.922 359H886.152V361H996.922V359Z" fill="#FCFAFF" mask="url(#path-174-inside-83_1852_26763)"/>
<mask id="path-176-inside-84_1852_26763" fill="white">
<path d="M886.152 360H996.922V432H886.152V360Z"/>
</mask>
<path d="M886.152 360H996.922V432H886.152V360Z" fill="white"/>
<path d="M996.922 431H886.152V433H996.922V431Z" fill="#FCFAFF" mask="url(#path-176-inside-84_1852_26763)"/>
<mask id="path-178-inside-85_1852_26763" fill="white">
<path d="M886.152 432H996.922V504H886.152V432Z"/>
</mask>
<path d="M886.152 432H996.922V504H886.152V432Z" fill="white"/>
<path d="M996.922 503H886.152V505H996.922V503Z" fill="#FCFAFF" mask="url(#path-178-inside-85_1852_26763)"/>
<mask id="path-180-inside-86_1852_26763" fill="white">
<path d="M886.152 504H996.922V576H886.152V504Z"/>
</mask>
<path d="M886.152 504H996.922V576H886.152V504Z" fill="white"/>
<path d="M996.922 575H886.152V577H996.922V575Z" fill="#FCFAFF" mask="url(#path-180-inside-86_1852_26763)"/>
<mask id="path-182-inside-87_1852_26763" fill="white">
<path d="M886.152 576H996.922V648H886.152V576Z"/>
</mask>
<path d="M886.152 576H996.922V648H886.152V576Z" fill="white"/>
<path d="M996.922 647H886.152V649H996.922V647Z" fill="#FCFAFF" mask="url(#path-182-inside-87_1852_26763)"/>
<mask id="path-184-inside-88_1852_26763" fill="white">
<path d="M886.152 648H996.922V720H886.152V648Z"/>
</mask>
<path d="M886.152 648H996.922V720H886.152V648Z" fill="white"/>
<path d="M996.922 719H886.152V721H996.922V719Z" fill="#FCFAFF" mask="url(#path-184-inside-88_1852_26763)"/>
<mask id="path-186-inside-89_1852_26763" fill="white">
<path d="M886.152 720H996.922V792H886.152V720Z"/>
</mask>
<path d="M886.152 720H996.922V792H886.152V720Z" fill="white"/>
<path d="M996.922 791H886.152V793H996.922V791Z" fill="#FCFAFF" mask="url(#path-186-inside-89_1852_26763)"/>
</g>
<path d="M995.922 0V1024H997.922V0H995.922Z" fill="#F6F8FB" mask="url(#path-164-inside-78_1852_26763)"/>
<mask id="path-188-inside-90_1852_26763" fill="white">
<path d="M996.922 0H1107.69V93H996.922V0Z"/>
</mask>
<path d="M996.922 0H1107.69V93H996.922V0Z" fill="white"/>
<path d="M1107.69 92H996.922V94H1107.69V92Z" fill="#FCFAFF" mask="url(#path-188-inside-90_1852_26763)"/>
<mask id="path-190-inside-91_1852_26763" fill="white">
<path d="M996.922 93H1107.69V186H996.922V93Z"/>
</mask>
<path d="M996.922 93H1107.69V186H996.922V93Z" fill="white"/>
<path d="M1107.69 185H996.922V187H1107.69V185Z" fill="#FCFAFF" mask="url(#path-190-inside-91_1852_26763)"/>
<mask id="path-192-inside-92_1852_26763" fill="white">
<path d="M996.922 186H1107.69V279H996.922V186Z"/>
</mask>
<path d="M996.922 186H1107.69V279H996.922V186Z" fill="#FCFAFF"/>
<path d="M1107.69 278H996.922V280H1107.69V278Z" fill="#FCFAFF" mask="url(#path-192-inside-92_1852_26763)"/>
<mask id="path-194-inside-93_1852_26763" fill="white">
<path d="M996.922 279H1107.69V372H996.922V279Z"/>
</mask>
<path d="M996.922 279H1107.69V372H996.922V279Z" fill="white"/>
<path d="M1107.69 371H996.922V373H1107.69V371Z" fill="#FCFAFF" mask="url(#path-194-inside-93_1852_26763)"/>
<mask id="path-196-inside-94_1852_26763" fill="white">
<path d="M996.922 372H1107.69V465H996.922V372Z"/>
</mask>
<path d="M996.922 372H1107.69V465H996.922V372Z" fill="white"/>
<path d="M1107.69 464H996.922V466H1107.69V464Z" fill="#FCFAFF" mask="url(#path-196-inside-94_1852_26763)"/>
<mask id="path-198-inside-95_1852_26763" fill="white">
<path d="M996.922 465H1107.69V558H996.922V465Z"/>
</mask>
<path d="M996.922 465H1107.69V558H996.922V465Z" fill="white"/>
<path d="M1107.69 557H996.922V559H1107.69V557Z" fill="#FCFAFF" mask="url(#path-198-inside-95_1852_26763)"/>
<mask id="path-200-inside-96_1852_26763" fill="white">
<path d="M996.922 558H1107.69V651H996.922V558Z"/>
</mask>
<path d="M996.922 558H1107.69V651H996.922V558Z" fill="white"/>
<path d="M1107.69 650H996.922V652H1107.69V650Z" fill="#FCFAFF" mask="url(#path-200-inside-96_1852_26763)"/>
<mask id="path-202-inside-97_1852_26763" fill="white">
<path d="M996.922 651H1107.69V744H996.922V651Z"/>
</mask>
<path d="M996.922 651H1107.69V744H996.922V651Z" fill="#FCFAFF"/>
<path d="M1107.69 743H996.922V745H1107.69V743Z" fill="#FCFAFF" mask="url(#path-202-inside-97_1852_26763)"/>
<mask id="path-204-inside-98_1852_26763" fill="white">
<path d="M996.922 744H1107.69V837H996.922V744Z"/>
</mask>
<path d="M996.922 744H1107.69V837H996.922V744Z" fill="white"/>
<path d="M1107.69 836H996.922V838H1107.69V836Z" fill="#FCFAFF" mask="url(#path-204-inside-98_1852_26763)"/>
<g clip-path="url(#clip6_1852_26763)">
<rect x="1107.69" width="110.769" height="1024" fill="white"/>
<path d="M1107.69 0H1218.46V72H1107.69V0Z" fill="white"/>
<mask id="path-209-inside-99_1852_26763" fill="white">
<path d="M1107.69 72H1218.46V144H1107.69V72Z"/>
</mask>
<path d="M1107.69 72H1218.46V144H1107.69V72Z" fill="white"/>
<path d="M1218.46 143H1107.69V145H1218.46V143Z" fill="#FCFAFF" mask="url(#path-209-inside-99_1852_26763)"/>
<mask id="path-211-inside-100_1852_26763" fill="white">
<path d="M1107.69 144H1218.46V216H1107.69V144Z"/>
</mask>
<path d="M1107.69 144H1218.46V216H1107.69V144Z" fill="white"/>
<path d="M1218.46 215H1107.69V217H1218.46V215Z" fill="#FCFAFF" mask="url(#path-211-inside-100_1852_26763)"/>
<mask id="path-213-inside-101_1852_26763" fill="white">
<path d="M1107.69 216H1218.46V288H1107.69V216Z"/>
</mask>
<path d="M1107.69 216H1218.46V288H1107.69V216Z" fill="white"/>
<path d="M1218.46 287H1107.69V289H1218.46V287Z" fill="#FCFAFF" mask="url(#path-213-inside-101_1852_26763)"/>
<mask id="path-215-inside-102_1852_26763" fill="white">
<path d="M1107.69 288H1218.46V360H1107.69V288Z"/>
</mask>
<path d="M1107.69 288H1218.46V360H1107.69V288Z" fill="white"/>
<path d="M1218.46 359H1107.69V361H1218.46V359Z" fill="#FCFAFF" mask="url(#path-215-inside-102_1852_26763)"/>
<mask id="path-217-inside-103_1852_26763" fill="white">
<path d="M1107.69 360H1218.46V432H1107.69V360Z"/>
</mask>
<path d="M1107.69 360H1218.46V432H1107.69V360Z" fill="white"/>
<path d="M1218.46 431H1107.69V433H1218.46V431Z" fill="#FCFAFF" mask="url(#path-217-inside-103_1852_26763)"/>
<mask id="path-219-inside-104_1852_26763" fill="white">
<path d="M1107.69 432H1218.46V504H1107.69V432Z"/>
</mask>
<path d="M1107.69 432H1218.46V504H1107.69V432Z" fill="white"/>
<path d="M1218.46 503H1107.69V505H1218.46V503Z" fill="#FCFAFF" mask="url(#path-219-inside-104_1852_26763)"/>
<mask id="path-221-inside-105_1852_26763" fill="white">
<path d="M1107.69 504H1218.46V576H1107.69V504Z"/>
</mask>
<path d="M1107.69 504H1218.46V576H1107.69V504Z" fill="white"/>
<path d="M1218.46 575H1107.69V577H1218.46V575Z" fill="#FCFAFF" mask="url(#path-221-inside-105_1852_26763)"/>
<mask id="path-223-inside-106_1852_26763" fill="white">
<path d="M1107.69 576H1218.46V648H1107.69V576Z"/>
</mask>
<path d="M1107.69 576H1218.46V648H1107.69V576Z" fill="white"/>
<path d="M1218.46 647H1107.69V649H1218.46V647Z" fill="#FCFAFF" mask="url(#path-223-inside-106_1852_26763)"/>
<mask id="path-225-inside-107_1852_26763" fill="white">
<path d="M1107.69 648H1218.46V720H1107.69V648Z"/>
</mask>
<path d="M1107.69 648H1218.46V720H1107.69V648Z" fill="white"/>
<path d="M1218.46 719H1107.69V721H1218.46V719Z" fill="#FCFAFF" mask="url(#path-225-inside-107_1852_26763)"/>
<mask id="path-227-inside-108_1852_26763" fill="white">
<path d="M1107.69 720H1218.46V792H1107.69V720Z"/>
</mask>
<path d="M1107.69 720H1218.46V792H1107.69V720Z" fill="white"/>
<path d="M1218.46 791H1107.69V793H1218.46V791Z" fill="#FCFAFF" mask="url(#path-227-inside-108_1852_26763)"/>
</g>
<rect x="1108.19" y="0.5" width="109.769" height="1023" stroke="#F6F8FB"/>
<path d="M1218.46 0H1329.23V93H1218.46V0Z" fill="white"/>
<mask id="path-230-inside-109_1852_26763" fill="white">
<path d="M1218.46 93H1329.23V186H1218.46V93Z"/>
</mask>
<path d="M1218.46 93H1329.23V186H1218.46V93Z" fill="white"/>
<path d="M1329.23 185H1218.46V187H1329.23V185Z" fill="#FCFAFF" mask="url(#path-230-inside-109_1852_26763)"/>
<mask id="path-232-inside-110_1852_26763" fill="white">
<path d="M1218.46 186H1329.23V279H1218.46V186Z"/>
</mask>
<path d="M1218.46 186H1329.23V279H1218.46V186Z" fill="white"/>
<path d="M1329.23 278H1218.46V280H1329.23V278Z" fill="#FCFAFF" mask="url(#path-232-inside-110_1852_26763)"/>
<mask id="path-234-inside-111_1852_26763" fill="white">
<path d="M1218.46 279H1329.23V372H1218.46V279Z"/>
</mask>
<path d="M1218.46 279H1329.23V372H1218.46V279Z" fill="white"/>
<path d="M1329.23 371H1218.46V373H1329.23V371Z" fill="#FCFAFF" mask="url(#path-234-inside-111_1852_26763)"/>
<mask id="path-236-inside-112_1852_26763" fill="white">
<path d="M1218.46 372H1329.23V465H1218.46V372Z"/>
</mask>
<path d="M1218.46 372H1329.23V465H1218.46V372Z" fill="#FCFAFF"/>
<path d="M1329.23 464H1218.46V466H1329.23V464Z" fill="#FCFAFF" mask="url(#path-236-inside-112_1852_26763)"/>
<mask id="path-238-inside-113_1852_26763" fill="white">
<path d="M1218.46 465H1329.23V558H1218.46V465Z"/>
</mask>
<path d="M1218.46 465H1329.23V558H1218.46V465Z" fill="white"/>
<path d="M1329.23 557H1218.46V559H1329.23V557Z" fill="#FCFAFF" mask="url(#path-238-inside-113_1852_26763)"/>
<mask id="path-240-inside-114_1852_26763" fill="white">
<path d="M1218.46 558H1329.23V651H1218.46V558Z"/>
</mask>
<path d="M1218.46 558H1329.23V651H1218.46V558Z" fill="white"/>
<path d="M1329.23 650H1218.46V652H1329.23V650Z" fill="#FCFAFF" mask="url(#path-240-inside-114_1852_26763)"/>
<path d="M1218.46 651H1329.23V744H1218.46V651Z" fill="white"/>
<mask id="path-243-inside-115_1852_26763" fill="white">
<path d="M1218.46 744H1329.23V837H1218.46V744Z"/>
</mask>
<path d="M1218.46 744H1329.23V837H1218.46V744Z" fill="white"/>
<path d="M1329.23 836H1218.46V838H1329.23V836Z" fill="#FCFAFF" mask="url(#path-243-inside-115_1852_26763)"/>
<g clip-path="url(#clip7_1852_26763)">
<mask id="path-245-inside-116_1852_26763" fill="white">
<path d="M1329.23 0H1440V93H1329.23V0Z"/>
</mask>
<path d="M1329.23 0H1440V93H1329.23V0Z" fill="white"/>
<path d="M1440 92H1329.23V94H1440V92Z" fill="white" mask="url(#path-245-inside-116_1852_26763)"/>
<mask id="path-247-inside-117_1852_26763" fill="white">
<path d="M1329.23 93H1440V186H1329.23V93Z"/>
</mask>
<path d="M1329.23 93H1440V186H1329.23V93Z" fill="white"/>
<path d="M1440 185H1329.23V187H1440V185Z" fill="white" mask="url(#path-247-inside-117_1852_26763)"/>
<mask id="path-249-inside-118_1852_26763" fill="white">
<path d="M1329.23 186H1440V279H1329.23V186Z"/>
</mask>
<path d="M1329.23 186H1440V279H1329.23V186Z" fill="white"/>
<path d="M1440 278H1329.23V280H1440V278Z" fill="white" mask="url(#path-249-inside-118_1852_26763)"/>
<mask id="path-251-inside-119_1852_26763" fill="white">
<path d="M1329.23 279H1440V372H1329.23V279Z"/>
</mask>
<path d="M1329.23 279H1440V372H1329.23V279Z" fill="white"/>
<path d="M1440 371H1329.23V373H1440V371Z" fill="white" mask="url(#path-251-inside-119_1852_26763)"/>
<mask id="path-253-inside-120_1852_26763" fill="white">
<path d="M1329.23 372H1440V465H1329.23V372Z"/>
</mask>
<path d="M1329.23 372H1440V465H1329.23V372Z" fill="white"/>
<path d="M1440 464H1329.23V466H1440V464Z" fill="white" mask="url(#path-253-inside-120_1852_26763)"/>
<mask id="path-255-inside-121_1852_26763" fill="white">
<path d="M1329.23 465H1440V558H1329.23V465Z"/>
</mask>
<path d="M1329.23 465H1440V558H1329.23V465Z" fill="white"/>
<path d="M1440 557H1329.23V559H1440V557Z" fill="white" mask="url(#path-255-inside-121_1852_26763)"/>
<mask id="path-257-inside-122_1852_26763" fill="white">
<path d="M1329.23 558H1440V651H1329.23V558Z"/>
</mask>
<path d="M1329.23 558H1440V651H1329.23V558Z" fill="white"/>
<path d="M1440 650H1329.23V652H1440V650Z" fill="white" mask="url(#path-257-inside-122_1852_26763)"/>
<mask id="path-259-inside-123_1852_26763" fill="white">
<path d="M1329.23 651H1440V744H1329.23V651Z"/>
</mask>
<path d="M1329.23 651H1440V744H1329.23V651Z" fill="white"/>
<path d="M1440 743H1329.23V745H1440V743Z" fill="white" mask="url(#path-259-inside-123_1852_26763)"/>
<mask id="path-261-inside-124_1852_26763" fill="white">
<path d="M1329.23 744H1440V837H1329.23V744Z"/>
</mask>
<path d="M1329.23 744H1440V837H1329.23V744Z" fill="white"/>
<path d="M1440 836H1329.23V838H1440V836Z" fill="white" mask="url(#path-261-inside-124_1852_26763)"/>
</g>
<defs>
<clipPath id="clip0_1852_26763">
<rect width="110.769" height="1024" fill="white"/>
</clipPath>
<clipPath id="clip1_1852_26763">
<rect x="221.539" width="110.769" height="1024" fill="white"/>
</clipPath>
<clipPath id="clip2_1852_26763">
<rect x="443.078" width="110.769" height="1024" fill="white"/>
</clipPath>
<clipPath id="clip3_1852_26763">
<rect x="664.617" width="110.769" height="1024" fill="white"/>
</clipPath>
<clipPath id="clip4_1852_26763">
<path d="M775.383 0H886.152V1024H775.383V0Z" fill="white"/>
</clipPath>
<clipPath id="clip5_1852_26763">
<path d="M886.152 0H996.922V1024H886.152V0Z" fill="white"/>
</clipPath>
<clipPath id="clip6_1852_26763">
<rect x="1107.69" width="110.769" height="1024" fill="white"/>
</clipPath>
<clipPath id="clip7_1852_26763">
<rect width="110.769" height="1024" fill="white" transform="translate(1329.23)"/>
</clipPath>
</defs>
</svg>