<svg width="18" height="19" viewBox="0 0 18 19" fill="none" xmlns="http://www.w3.org/2000/svg">
<path d="M11.9015 9.05347C11.9015 10.6605 10.5935 11.9684 8.98655 11.9684C7.38039 11.9675 6.07229 10.6604 6.07229 9.05347C6.07229 7.44653 7.38026 6.13855 8.98721 6.13855C10.5942 6.13855 11.9015 7.44653 11.9015 9.05347ZM18 2.97446V16.0255C18 17.3894 16.8894 18.5 15.5255 18.5H2.47446C1.11056 18.5 0 17.3894 0 16.0255V2.97446C0 1.61056 1.1106 0.5 2.47446 0.5H15.5255C16.8894 0.5 18 1.6106 18 2.97446ZM0.650602 2.97446V3.48614C1.54856 4.163 2.71084 4.1342 3.58504 3.39718C4.73036 2.42976 6.33058 2.42976 7.47347 3.39718C8.38668 4.16724 9.61165 4.16724 10.5248 3.39718C11.6701 2.42976 13.2703 2.42976 14.4132 3.39718C15.2875 4.13419 16.4497 4.16299 17.3477 3.48614V2.97446C17.3477 1.96806 16.5302 1.15056 15.5238 1.15056H2.47441C1.46802 1.15056 0.650602 1.96804 0.650602 2.97446ZM17.3494 16.0255V15.9671C16.9131 16.2034 16.4362 16.3314 15.9398 16.3314C15.606 16.3314 15.2764 16.2729 14.9613 16.1602C14.7919 16.0992 14.7055 15.9129 14.7665 15.7434C14.8275 15.574 15.0138 15.4876 15.1833 15.5486C15.4264 15.6376 15.6822 15.6808 15.9398 15.6808C16.4447 15.6808 16.9284 15.5113 17.3494 15.197V12.0635C16.9131 12.2999 16.4362 12.4278 15.9398 12.4278C15.2417 12.4278 14.5522 12.1694 13.9947 11.7009C13.6627 11.4214 13.273 11.235 12.8672 11.163C12.6893 11.1325 12.5724 10.9631 12.6029 10.786C12.6334 10.6081 12.8045 10.4912 12.9799 10.5217C13.4983 10.6132 13.9947 10.8495 14.4158 11.2028C14.8605 11.5781 15.3874 11.7771 15.9406 11.7771C16.4455 11.7771 16.9292 11.6077 17.3502 11.2934L17.3494 8.1599C16.9131 8.39624 16.4362 8.52417 15.9397 8.52417C15.2417 8.52417 14.5521 8.2658 13.9947 7.79732C13.6177 7.47878 13.173 7.28564 12.7087 7.23821C12.5309 7.21873 12.4004 7.06031 12.4182 6.88073C12.4377 6.70283 12.5961 6.5749 12.7757 6.59017C13.3678 6.65286 13.9363 6.89853 14.4132 7.29922C14.8579 7.67451 15.3849 7.87357 15.938 7.87357C16.4429 7.87357 16.9266 7.70414 17.3477 7.38985L17.3468 4.25633C16.9021 4.49692 16.4209 4.61891 15.9372 4.61891C15.2518 4.61891 14.5648 4.37832 13.9921 3.89462C13.0789 3.12456 11.854 3.12456 10.9408 3.89462C9.7955 4.86204 8.19528 4.86204 7.05239 3.89462C6.13918 3.12456 4.91421 3.12456 4.00106 3.89462C3.02516 4.71889 1.71962 4.83834 0.64634 4.2572V7.39071C1.5443 8.06758 2.70658 8.03878 3.58077 7.30176C4.04925 6.907 4.60413 6.66387 5.18525 6.59694C5.36315 6.57492 5.52579 6.70538 5.54529 6.88328C5.56731 7.06117 5.43686 7.22382 5.25896 7.24332C4.80319 7.29499 4.36776 7.48814 3.99926 7.80073C3.4266 8.28446 2.74126 8.52503 2.05422 8.52503C1.5705 8.52503 1.08934 8.40135 0.644584 8.16245V11.296C1.54255 11.9728 2.70482 11.944 3.57902 11.207C3.99072 10.8597 4.47698 10.6259 4.98612 10.5301C5.16402 10.4954 5.33345 10.6149 5.36564 10.7902C5.39783 10.9656 5.28092 11.1376 5.10557 11.1697C4.70658 11.2434 4.3245 11.4281 3.9992 11.7034C3.42654 12.1871 2.7395 12.4277 2.05416 12.4277C1.57043 12.4277 1.08927 12.3066 0.644519 12.0651V15.1945C1.28241 15.674 2.08042 15.8104 2.81319 15.5503C2.98262 15.4893 3.16899 15.5783 3.22999 15.7477C3.291 15.9171 3.20203 16.1035 3.03261 16.1645C2.71153 16.2797 2.382 16.3339 2.05247 16.3339C1.56706 16.3339 1.08505 16.2086 0.645373 15.9697V16.0281C0.645373 17.0345 1.46286 17.852 2.46927 17.852H4.33212L4.33043 15.5723C4.33043 13.9568 5.64434 12.6446 7.25814 12.6446H10.7347C12.3502 12.6446 13.6625 13.9585 13.6625 15.5723V17.8494H15.5253C16.5317 17.8494 17.3494 17.032 17.3494 16.0255Z" fill="#5E29B7"/>
</svg>