<svg width="18" height="19" viewBox="0 0 18 19" fill="none" xmlns="http://www.w3.org/2000/svg">
<path d="M8.99951 0.5C4.0371 0.5 -0.000488281 4.53759 -0.000488281 9.5C-0.000488281 14.4624 4.0371 18.5 8.99951 18.5C13.9619 18.5 18.0007 14.4624 18.0007 9.5C18.0007 4.53759 13.9619 0.5 8.99951 0.5ZM1.22583 9.5C1.22583 7.60625 1.9086 5.87092 3.03825 4.51995L13.9792 15.4613C12.6286 16.5917 10.8929 17.2737 8.99951 17.2737C4.71259 17.2737 1.22583 13.7869 1.22583 9.5ZM14.8518 14.6013L3.89786 3.64768C5.26342 2.45474 7.04593 1.7267 8.99836 1.7267C13.2849 1.7267 16.7717 5.21346 16.7717 9.5C16.7743 11.4524 16.0444 13.2346 14.8518 14.6013Z" fill="#5E29B7"/>
</svg>