<svg width="24" height="20" viewBox="0 0 24 20" fill="none" xmlns="http://www.w3.org/2000/svg">
<path d="M19.8776 0.666016C21.9717 0.666016 23.6693 2.3636 23.6693 4.45768V15.5464C23.6693 17.6405 21.9717 19.338 19.8776 19.338H4.1276C2.03352 19.338 0.335938 17.6405 0.335938 15.5464V4.45768C0.335938 2.43581 1.91847 0.783562 3.91244 0.672018L4.1276 0.666016H19.8776ZM19.8776 2.41602H4.1276L3.96016 2.42278C2.9109 2.50796 2.08594 3.38648 2.08594 4.45768V15.5464C2.08594 16.674 3.00002 17.588 4.1276 17.588H19.8776C21.0052 17.588 21.9193 16.674 21.9193 15.5464V4.45768C21.9193 3.3301 21.0052 2.41602 19.8776 2.41602ZM4.41927 9.99935C4.41927 6.3295 7.5847 4.42815 10.3945 6.03098C10.8142 6.27043 10.9604 6.80482 10.721 7.22457C10.4815 7.64433 9.94714 7.7905 9.52738 7.55105C7.89676 6.62088 6.16927 7.65852 6.16927 9.99935C6.16927 12.338 7.90073 13.3783 9.52833 12.4525C9.94839 12.2136 10.4826 12.3604 10.7215 12.7805C10.9604 13.2005 10.8136 13.7347 10.3935 13.9737C7.58722 15.5698 4.41927 13.6666 4.41927 9.99935ZM13.1693 9.99935C13.1693 6.3295 16.3347 4.42815 19.1445 6.03098C19.5642 6.27043 19.7104 6.80482 19.471 7.22457C19.2315 7.64433 18.6971 7.7905 18.2774 7.55105C16.6468 6.62088 14.9193 7.65852 14.9193 9.99935C14.9193 12.338 16.6507 13.3783 18.2783 12.4525C18.6984 12.2136 19.2326 12.3604 19.4715 12.7805C19.7104 13.2005 19.5636 13.7347 19.1435 13.9737C16.3372 15.5698 13.1693 13.6666 13.1693 9.99935Z" fill="#FAF0FF"/>
</svg>