<svg width="128" height="24" viewBox="0 0 128 24" fill="none" xmlns="http://www.w3.org/2000/svg">
<path d="M6.496 17.192C3.344 17.192 0.656 14.584 0.656 11.496C0.656 8.408 3.344 5.816 6.496 5.816C8.16 5.816 9.696 6.52 10.768 7.656L9.056 9.192C8.416 8.456 7.504 7.96 6.496 7.96C4.656 7.96 3.088 9.592 3.088 11.496C3.088 13.416 4.656 15.048 6.496 15.048C7.504 15.048 8.416 14.552 9.056 13.816L10.768 15.352C9.696 16.472 8.16 17.192 6.496 17.192ZM15.0686 15.128C15.7246 15.128 16.5246 14.824 16.9726 14.392L18.4606 15.912C17.7246 16.68 16.3006 17.192 15.0846 17.192C12.6206 17.192 10.7006 15.384 10.7006 12.84C10.7006 10.344 12.5406 8.536 14.9566 8.536C17.5486 8.536 19.0686 10.504 19.0686 13.624H13.1006C13.3726 14.52 14.0926 15.128 15.0686 15.128ZM15.0526 10.6C14.1726 10.6 13.4366 11.112 13.1326 11.944H16.8286C16.6046 11.128 15.9966 10.6 15.0526 10.6ZM23.697 17.192C21.249 17.192 19.185 15.208 19.185 12.856C19.185 10.504 21.265 8.536 23.713 8.536C25.057 8.536 26.161 9.08 26.961 9.944L25.409 11.272C24.993 10.808 24.337 10.504 23.697 10.504C22.481 10.504 21.457 11.576 21.457 12.84C21.457 14.136 22.481 15.224 23.713 15.224C24.353 15.224 25.025 14.904 25.457 14.424L27.009 15.736C26.193 16.632 25.073 17.192 23.697 17.192ZM32.9026 8.728H35.2386V17H32.9026V15.96C32.4066 16.712 31.4786 17.192 30.4066 17.192C28.6146 17.192 27.3346 15.864 27.3346 13.992V8.728H29.5906V13.496C29.5906 14.52 30.2306 15.224 31.1586 15.224C32.1346 15.224 32.8866 14.52 32.8866 13.624L32.9026 13.672V8.728ZM38.5788 10.264C39.1228 9.192 40.1468 8.536 41.4108 8.536V10.504C39.6828 10.504 38.5788 11.496 38.5788 13.048V17H36.2428V8.728H38.5788V10.264ZM45.6624 15.128C46.3184 15.128 47.1184 14.824 47.5664 14.392L49.0544 15.912C48.3184 16.68 46.8944 17.192 45.6784 17.192C43.2144 17.192 41.2944 15.384 41.2944 12.84C41.2944 10.344 43.1344 8.536 45.5504 8.536C48.1424 8.536 49.6624 10.504 49.6624 13.624H43.6944C43.9664 14.52 44.6864 15.128 45.6624 15.128ZM45.6464 10.6C44.7664 10.6 44.0304 11.112 43.7264 11.944H47.4224C47.1984 11.128 46.5904 10.6 45.6464 10.6ZM54.4668 17.192C52.5628 17.192 50.8668 16.552 49.5868 15.368L50.9468 13.752C51.9868 14.648 53.1708 15.192 54.5628 15.192C55.7468 15.192 56.3548 14.648 56.3548 13.96C56.3548 13.176 55.7148 12.936 54.0348 12.552C51.7148 12.024 50.0668 11.368 50.0668 9.24C50.0668 7.208 51.7308 5.816 54.1308 5.816C55.9228 5.816 57.3148 6.376 58.4348 7.336L57.2028 9.032C56.2268 8.248 55.1228 7.816 54.0668 7.816C53.0588 7.816 52.4508 8.344 52.4508 9C52.4508 9.8 53.1068 10.056 54.8028 10.44C57.1708 10.968 58.7388 11.672 58.7388 13.704C58.7388 15.8 57.1548 17.192 54.4668 17.192ZM63.7198 14.952L64.2798 16.472C63.7998 16.904 63.0477 17.192 62.3758 17.192C60.9198 17.192 59.8958 16.152 59.8958 14.664V10.616H58.7598V8.728H59.8958V6.456H62.1358V8.728H63.9278V10.616H62.1358V14.296C62.1358 14.84 62.4878 15.224 62.9198 15.224C63.2398 15.224 63.5598 15.112 63.7198 14.952ZM67.0788 10.264C67.6228 9.192 68.6468 8.536 69.9108 8.536V10.504C68.1828 10.504 67.0788 11.496 67.0788 13.048V17H64.7428V8.728H67.0788V10.264ZM74.1624 15.128C74.8184 15.128 75.6184 14.824 76.0664 14.392L77.5544 15.912C76.8184 16.68 75.3944 17.192 74.1784 17.192C71.7144 17.192 69.7944 15.384 69.7944 12.84C69.7944 10.344 71.6344 8.536 74.0504 8.536C76.6424 8.536 78.1624 10.504 78.1624 13.624H72.1944C72.4664 14.52 73.1864 15.128 74.1624 15.128ZM74.1464 10.6C73.2664 10.6 72.5304 11.112 72.2264 11.944H75.9224C75.6984 11.128 75.0904 10.6 74.1464 10.6ZM82.4388 8.536C84.5988 8.536 86.0708 9.896 86.0708 12.056V17H83.8148V16.168C83.2228 16.84 82.2788 17.192 81.3828 17.192C79.6228 17.192 78.2628 16.136 78.2628 14.552C78.2628 12.92 79.7828 11.8 81.7028 11.8C82.3748 11.8 83.1108 11.944 83.8148 12.216V12.056C83.8148 11.176 83.2708 10.408 81.9108 10.408C81.1428 10.408 80.4228 10.664 79.7668 11L78.9828 9.448C80.1508 8.856 81.2868 8.536 82.4388 8.536ZM81.9108 15.576C82.8068 15.576 83.6548 15.16 83.8148 14.392V13.624C83.2868 13.432 82.6788 13.32 82.0388 13.32C81.1908 13.32 80.5188 13.816 80.5188 14.488C80.5188 15.16 81.1108 15.576 81.9108 15.576ZM96.8796 8.536C98.6076 8.536 99.9356 9.864 99.9356 11.736V17.016H97.6956V12.136C97.6956 11.176 97.0876 10.504 96.2236 10.504C95.2956 10.504 94.6236 11.128 94.6236 12.008V17.016H92.3836V12.136C92.3836 11.176 91.7756 10.504 90.9276 10.504C89.9836 10.504 89.3276 11.128 89.3276 12.008V17H86.9916V8.728H89.3276V9.816C89.7276 9.032 90.5436 8.536 91.5676 8.536C92.7036 8.536 93.6796 9.112 94.1916 10.04C94.6236 9.128 95.6476 8.536 96.8796 8.536Z" fill="#5E29B7"/>
<rect x="105.25" y="5.25" width="22.5" height="13.5" rx="3.75" stroke="#494949" stroke-width="0.5"/>
<path d="M109.696 14V8.504H112.304C113.224 8.504 113.872 9.072 113.872 9.872C113.872 10.448 113.584 10.808 113.088 11.088C113.728 11.4 114.096 11.896 114.096 12.504C114.096 13.384 113.392 14 112.408 14H109.696ZM110.504 10.792H112.104C112.656 10.792 113.048 10.464 113.048 10.008C113.048 9.552 112.656 9.216 112.104 9.216H110.504V10.792ZM110.504 13.288H112.224C112.84 13.288 113.272 12.912 113.272 12.384C113.272 11.856 112.84 11.48 112.224 11.48H110.504V13.288ZM115.98 13.392C116.412 13.392 116.916 13.2 117.164 12.944L117.66 13.456C117.292 13.848 116.572 14.096 115.988 14.096C114.836 14.096 113.86 13.192 113.86 11.92C113.86 10.68 114.78 9.768 115.924 9.768C117.188 9.768 117.916 10.728 117.916 12.208H114.66C114.764 12.896 115.268 13.392 115.98 13.392ZM115.956 10.472C115.316 10.472 114.796 10.904 114.668 11.576H117.148C117.06 10.936 116.668 10.472 115.956 10.472ZM119.77 13.256L120.058 13.8C119.834 13.984 119.53 14.096 119.234 14.096C118.594 14.096 118.146 13.632 118.146 12.968V10.536H117.522V9.864H118.146V8.728H118.922V9.864H119.898V10.536H118.922V12.912C118.922 13.2 119.114 13.408 119.346 13.408C119.522 13.408 119.682 13.344 119.77 13.256ZM121.601 9.768C122.713 9.768 123.329 10.472 123.329 11.496V14H122.553V13.432C122.249 13.864 121.681 14.096 121.177 14.096C120.297 14.096 119.649 13.584 119.649 12.776C119.649 11.952 120.393 11.4 121.305 11.4C121.713 11.4 122.153 11.488 122.553 11.624V11.496C122.553 10.976 122.313 10.424 121.489 10.424C121.081 10.424 120.681 10.584 120.321 10.768L120.033 10.184C120.625 9.888 121.145 9.768 121.601 9.768ZM121.329 13.472C121.841 13.472 122.417 13.216 122.553 12.704V12.152C122.217 12.048 121.833 11.992 121.425 11.992C120.873 11.992 120.409 12.304 120.409 12.752C120.409 13.2 120.809 13.472 121.329 13.472Z" fill="#494949"/>
</svg>
