<svg width="257" height="48" viewBox="0 0 257 48" fill="none" xmlns="http://www.w3.org/2000/svg">
<path d="M12.992 33.384C6.688 33.384 1.312 28.168 1.312 21.992C1.312 15.816 6.688 10.632 12.992 10.632C16.32 10.632 19.392 12.04 21.536 14.312L18.112 17.384C16.832 15.912 15.008 14.92 12.992 14.92C9.312 14.92 6.176 18.184 6.176 21.992C6.176 25.832 9.312 29.096 12.992 29.096C15.008 29.096 16.832 28.104 18.112 26.632L21.536 29.704C19.392 31.944 16.32 33.384 12.992 33.384ZM31.1373 29.256C32.4493 29.256 34.0493 28.648 34.9453 27.784L37.9213 30.824C36.4493 32.36 33.6013 33.384 31.1693 33.384C26.2413 33.384 22.4013 29.768 22.4013 24.68C22.4013 19.688 26.0813 16.072 30.9133 16.072C36.0973 16.072 39.1373 20.008 39.1373 26.248H27.2013C27.7453 28.04 29.1853 29.256 31.1373 29.256ZM31.1053 20.2C29.3453 20.2 27.8733 21.224 27.2653 22.888H34.6573C34.2093 21.256 32.9933 20.2 31.1053 20.2ZM49.394 33.384C44.498 33.384 40.37 29.416 40.37 24.712C40.37 20.008 44.53 16.072 49.426 16.072C52.114 16.072 54.322 17.16 55.922 18.888L52.818 21.544C51.986 20.616 50.674 20.008 49.394 20.008C46.962 20.008 44.914 22.152 44.914 24.68C44.914 27.272 46.962 29.448 49.426 29.448C50.706 29.448 52.05 28.808 52.914 27.848L56.018 30.472C54.386 32.264 52.146 33.384 49.394 33.384ZM68.8053 16.456H73.4773V33H68.8053V30.92C67.8133 32.424 65.9573 33.384 63.8133 33.384C60.2293 33.384 57.6693 30.728 57.6693 26.984V16.456H62.1813V25.992C62.1813 28.04 63.4613 29.448 65.3173 29.448C67.2693 29.448 68.7733 28.04 68.7733 26.248L68.8053 26.344V16.456ZM81.1575 19.528C82.2455 17.384 84.2935 16.072 86.8215 16.072V20.008C83.3655 20.008 81.1575 21.992 81.1575 25.096V33H76.4855V16.456H81.1575V19.528ZM96.3248 29.256C97.6368 29.256 99.2368 28.648 100.133 27.784L103.109 30.824C101.637 32.36 98.7888 33.384 96.3568 33.384C91.4288 33.384 87.5888 29.768 87.5888 24.68C87.5888 19.688 91.2688 16.072 96.1008 16.072C101.285 16.072 104.325 20.008 104.325 26.248H92.3888C92.9328 28.04 94.3728 29.256 96.3248 29.256ZM96.2928 20.2C94.5328 20.2 93.0608 21.224 92.4528 22.888H99.8448C99.3968 21.256 98.1808 20.2 96.2928 20.2ZM114.934 33.384C111.126 33.384 107.734 32.104 105.174 29.736L107.894 26.504C109.974 28.296 112.342 29.384 115.126 29.384C117.494 29.384 118.71 28.296 118.71 26.92C118.71 25.352 117.43 24.872 114.07 24.104C109.43 23.048 106.134 21.736 106.134 17.48C106.134 13.416 109.462 10.632 114.262 10.632C117.846 10.632 120.63 11.752 122.87 13.672L120.406 17.064C118.454 15.496 116.246 14.632 114.134 14.632C112.118 14.632 110.902 15.688 110.902 17C110.902 18.6 112.214 19.112 115.606 19.88C120.342 20.936 123.478 22.344 123.478 26.408C123.478 30.6 120.31 33.384 114.934 33.384ZM134.44 28.904L135.56 31.944C134.6 32.808 133.095 33.384 131.752 33.384C128.84 33.384 126.792 31.304 126.792 28.328V20.232H124.52V16.456H126.792V11.912H131.272V16.456H134.856V20.232H131.272V27.592C131.272 28.68 131.976 29.448 132.84 29.448C133.48 29.448 134.12 29.224 134.44 28.904ZM142.158 19.528C143.246 17.384 145.294 16.072 147.822 16.072V20.008C144.366 20.008 142.158 21.992 142.158 25.096V33H137.486V16.456H142.158V19.528ZM157.325 29.256C158.637 29.256 160.237 28.648 161.133 27.784L164.109 30.824C162.637 32.36 159.789 33.384 157.357 33.384C152.429 33.384 148.589 29.768 148.589 24.68C148.589 19.688 152.269 16.072 157.101 16.072C162.285 16.072 165.325 20.008 165.325 26.248H153.389C153.933 28.04 155.373 29.256 157.325 29.256ZM157.293 20.2C155.533 20.2 154.061 21.224 153.453 22.888H160.845C160.397 21.256 159.181 20.2 157.293 20.2ZM174.878 16.072C179.198 16.072 182.142 18.792 182.142 23.112V33H177.63V31.336C176.446 32.68 174.558 33.384 172.766 33.384C169.246 33.384 166.526 31.272 166.526 28.104C166.526 24.84 169.566 22.6 173.406 22.6C174.75 22.6 176.222 22.888 177.63 23.432V23.112C177.63 21.352 176.542 19.816 173.822 19.816C172.286 19.816 170.846 20.328 169.534 21L167.966 17.896C170.302 16.712 172.574 16.072 174.878 16.072ZM173.822 30.152C175.614 30.152 177.31 29.32 177.63 27.784V26.248C176.574 25.864 175.358 25.64 174.078 25.64C172.382 25.64 171.038 26.632 171.038 27.976C171.038 29.32 172.222 30.152 173.822 30.152ZM204.759 16.072C208.215 16.072 210.871 18.728 210.871 22.472V33.032H206.391V23.272C206.391 21.352 205.175 20.008 203.447 20.008C201.591 20.008 200.247 21.256 200.247 23.016V33.032H195.767V23.272C195.767 21.352 194.551 20.008 192.855 20.008C190.967 20.008 189.655 21.256 189.655 23.016V33H184.983V16.456H189.655V18.632C190.455 17.064 192.087 16.072 194.135 16.072C196.407 16.072 198.359 17.224 199.383 19.08C200.247 17.256 202.295 16.072 204.759 16.072Z" fill="#5E29B7"/>
<rect x="217.25" y="13.25" width="39.5" height="21.5" rx="5.75" stroke="#494949" stroke-width="0.5"/>
<path d="M226.044 28V19.756H229.956C231.336 19.756 232.308 20.608 232.308 21.808C232.308 22.672 231.876 23.212 231.132 23.632C232.092 24.1 232.644 24.844 232.644 25.756C232.644 27.076 231.588 28 230.112 28H226.044ZM227.256 23.188H229.656C230.484 23.188 231.072 22.696 231.072 22.012C231.072 21.328 230.484 20.824 229.656 20.824H227.256V23.188ZM227.256 26.932H229.836C230.76 26.932 231.408 26.368 231.408 25.576C231.408 24.784 230.76 24.22 229.836 24.22H227.256V26.932ZM235.97 27.088C236.618 27.088 237.374 26.8 237.746 26.416L238.49 27.184C237.938 27.772 236.858 28.144 235.982 28.144C234.254 28.144 232.79 26.788 232.79 24.88C232.79 23.02 234.17 21.652 235.886 21.652C237.782 21.652 238.874 23.092 238.874 25.312H233.99C234.146 26.344 234.902 27.088 235.97 27.088ZM235.934 22.708C234.974 22.708 234.194 23.356 234.002 24.364H237.722C237.59 23.404 237.002 22.708 235.934 22.708ZM242.155 26.884L242.587 27.7C242.251 27.976 241.795 28.144 241.351 28.144C240.391 28.144 239.719 27.448 239.719 26.452V22.804H238.783V21.796H239.719V20.092H240.883V21.796H242.347V22.804H240.883V26.368C240.883 26.8 241.171 27.112 241.519 27.112C241.783 27.112 242.023 27.016 242.155 26.884ZM245.402 21.652C247.07 21.652 247.994 22.708 247.994 24.244V28H246.83V27.148C246.374 27.796 245.522 28.144 244.766 28.144C243.446 28.144 242.474 27.376 242.474 26.164C242.474 24.928 243.59 24.1 244.958 24.1C245.57 24.1 246.23 24.232 246.83 24.436V24.244C246.83 23.464 246.47 22.636 245.234 22.636C244.622 22.636 244.022 22.876 243.482 23.152L243.05 22.276C243.938 21.832 244.718 21.652 245.402 21.652ZM244.994 27.208C245.762 27.208 246.626 26.824 246.83 26.056V25.228C246.326 25.072 245.75 24.988 245.138 24.988C244.31 24.988 243.614 25.456 243.614 26.128C243.614 26.8 244.214 27.208 244.994 27.208Z" fill="#494949"/>
</svg>
