<svg width="14" height="14" viewBox="0 0 14 14" fill="none" xmlns="http://www.w3.org/2000/svg">
<path d="M2.05086 0.636643C1.66033 0.246119 1.02717 0.246119 0.636643 0.636643C0.246119 1.02717 0.246119 1.66033 0.636643 2.05086L5.58639 7.0006L0.636643 11.9504C0.246119 12.3409 0.246119 12.974 0.636643 13.3646C1.02717 13.7551 1.66033 13.7551 2.05086 13.3646L7.0006 8.41482L11.9504 13.3646C12.3409 13.7551 12.974 13.7551 13.3646 13.3646C13.7551 12.974 13.7551 12.3409 13.3646 11.9504L8.41482 7.0006L13.3646 2.05086C13.7551 1.66033 13.7551 1.02717 13.3646 0.636643C12.974 0.246119 12.3409 0.246119 11.9504 0.636643L7.0006 5.58639L2.05086 0.636643Z" fill="#747474"/>
</svg>