<svg width="4" height="20" viewBox="0 0 4 20" fill="none" xmlns="http://www.w3.org/2000/svg">
<path d="M3.30546 18.0001C3.30546 18.732 2.72093 19.3056 1.99994 19.3056C1.28349 19.3056 0.694424 18.7165 0.694424 18.0001C0.694424 17.2836 1.28349 16.6945 1.99994 16.6945C2.72093 16.6945 3.30546 17.2681 3.30546 18.0001ZM3.30546 10.0003C3.30546 10.7322 2.72093 11.3058 1.99994 11.3058C1.28349 11.3058 0.694424 10.7167 0.694424 10.0003C0.694424 9.28384 1.28349 8.69477 1.99994 8.69477C2.72093 8.69477 3.30546 9.26837 3.30546 10.0003ZM3.30546 2.00053C3.30546 2.73245 2.72093 3.30604 1.99994 3.30604C1.28349 3.30604 0.694424 2.71697 0.694424 2.00053C0.694424 1.28408 1.28349 0.695005 1.99994 0.695005C2.72093 0.695005 3.30546 1.2686 3.30546 2.00053Z" fill="#FAF0FF" stroke="#FAF0FF" stroke-width="1.38885"/>
</svg>