<svg width="565" height="587" viewBox="0 0 565 587" fill="none" xmlns="http://www.w3.org/2000/svg">
<path d="M494.922 12H291.846C285.653 12 280.633 17.0143 280.633 23.1997V169.916C280.633 176.101 285.653 181.115 291.846 181.115H494.922C501.114 181.115 506.134 176.101 506.134 169.916V23.1997C506.134 17.0143 501.114 12 494.922 12Z" fill="#F2F6FB"/>
<path d="M314.535 167.959C303.263 167.959 294.125 158.739 294.125 147.366C294.125 135.993 303.263 126.773 314.535 126.773C325.808 126.773 334.946 135.993 334.946 147.366C334.946 158.739 325.808 167.959 314.535 167.959ZM314.58 147.28C316.086 147.28 317.307 146.064 317.307 144.564C317.307 143.064 316.086 141.848 314.58 141.848C313.074 141.848 311.853 143.064 311.853 144.564C311.853 146.064 313.074 147.28 314.58 147.28ZM314.58 148.638C311.85 148.638 309.637 150.842 309.637 153.561H319.523C319.523 150.842 317.31 148.638 314.58 148.638Z" fill="#D8DEED"/>
<path d="M294.128 49.024C294.128 47.7844 295.129 46.7795 296.373 46.7795H439.474C440.713 46.7795 441.718 47.7861 441.718 49.024V110.293C441.718 111.533 440.717 112.538 439.474 112.538H296.373C295.133 112.538 294.128 111.531 294.128 110.293V49.024ZM349.588 143.529H462.229C464.489 143.529 466.32 145.359 466.32 147.615C466.32 149.872 464.489 151.701 462.229 151.701H349.588C347.329 151.701 345.497 149.872 345.497 147.615C345.497 145.359 347.329 143.529 349.588 143.529ZM349.588 156.808H482.708C484.967 156.808 486.798 158.638 486.798 160.894C486.798 163.151 484.967 164.98 482.708 164.98H349.588C347.329 164.98 345.497 163.151 345.497 160.894C345.497 158.638 347.329 156.808 349.588 156.808ZM349.588 130.25H433.56C435.819 130.25 437.65 132.08 437.65 134.336C437.65 136.593 435.819 138.422 433.56 138.422H349.588C347.329 138.422 345.497 136.593 345.497 134.336C345.497 132.08 347.329 130.25 349.588 130.25ZM280.633 21.5644C280.633 16.2821 284.92 12 290.206 12H496.997C502.284 12 506.57 16.281 506.57 21.5644V31.1287H280.633V21.5644Z" fill="#E1E5F0"/>
<path d="M459.154 98.1523H485.75C489.726 98.1523 492.95 101.372 492.95 105.345C492.95 109.317 489.726 112.537 485.75 112.537H459.154C455.177 112.537 451.953 109.317 451.953 105.345C451.953 101.372 455.177 98.1523 459.154 98.1523Z" fill="#A339FF"/>
<path d="M293.487 25.9125C295.771 25.9125 297.623 24.0634 297.623 21.7824C297.623 19.5014 295.771 17.6523 293.487 17.6523C291.203 17.6523 289.352 19.5014 289.352 21.7824C289.352 24.0634 291.203 25.9125 293.487 25.9125Z" fill="#130057"/>
<path d="M306.972 25.9125C309.256 25.9125 311.107 24.0634 311.107 21.7824C311.107 19.5014 309.256 17.6523 306.972 17.6523C304.688 17.6523 302.836 19.5014 302.836 21.7824C302.836 24.0634 304.688 25.9125 306.972 25.9125Z" fill="#FFCB3D"/>
<path d="M320.909 25.9125C323.193 25.9125 325.045 24.0634 325.045 21.7824C325.045 19.5014 323.193 17.6523 320.909 17.6523C318.625 17.6523 316.773 19.5014 316.773 21.7824C316.773 24.0634 318.625 25.9125 320.909 25.9125Z" fill="#3ABF7C"/>
<path d="M477.948 417.766V377.504C477.948 353.088 477.948 328.729 477.948 304.37V267.019C477.948 265.675 454.682 264.555 426.706 264.555H420.875C392.955 264.555 369.633 265.675 369.633 267.019V417.879C369.633 419.222 392.899 420.342 420.875 420.342H426.706C454.626 420.398 477.948 419.222 477.948 417.766Z" fill="#D8DEED"/>
<path d="M312.502 556.25L312.726 556.362C313.903 556.978 315.417 556.642 315.978 555.578L381.628 435.125C382.245 434.005 381.74 432.605 380.563 431.989L380.339 431.877C379.162 431.261 377.648 431.597 377.087 432.661L360.829 462.452C350.233 481.94 339.637 501.371 328.984 520.859L311.436 553.002C310.82 554.122 311.324 555.578 312.502 556.25Z" fill="#D8DEED"/>
<path d="M475.534 429.918H434.439C409.547 429.918 384.654 429.918 359.818 429.918H321.695C320.349 429.918 319.172 431.038 319.172 432.382V432.662C319.172 434.006 320.293 435.126 321.695 435.126H475.646C476.991 435.126 478.169 434.006 478.169 432.662V432.382C478.169 431.038 476.991 429.918 475.534 429.918Z" fill="#D8DEED"/>
<path d="M495.55 553.003L478.002 520.86C467.406 501.373 456.81 481.941 446.158 462.454L429.899 432.663C429.339 431.599 427.825 431.207 426.648 431.879L426.424 431.991C425.246 432.607 424.742 434.063 425.358 435.127L491.009 555.579C491.57 556.643 493.083 557.035 494.261 556.363L494.485 556.251C495.662 555.579 496.167 554.123 495.55 553.003Z" fill="#D8DEED"/>
<path d="M215.521 413.253C219.551 415.254 220.927 417.234 221.141 418.965C221.456 421.879 220.774 424.22 219.149 428.07C216.003 435.77 213.33 443.574 211.18 451.587C210.551 451.451 209.923 451.308 209.296 451.158C210.61 456.161 210.564 459.986 210.564 459.986C151.659 459.986 122.698 459.986 123.68 459.986C125.154 459.986 135.806 431.177 173.394 428.249C174.474 428.163 175.522 428.109 176.54 428.084C176.77 427.128 177.165 426.265 177.882 424.961C176.307 421.105 175.094 412.068 174.683 408.305C174.683 408.151 174.736 407.996 174.789 407.841C175 407.429 175.581 407.223 176.057 407.429L187.955 413.253C189.987 412.511 192.137 411.836 194.404 411.161C196.551 410.505 198.698 409.947 200.717 409.434L204.977 398.379C205.134 397.955 205.658 397.691 206.077 397.903C206.234 397.955 206.339 398.061 206.443 398.22C208.648 401.327 214.064 409.248 215.521 413.253Z" fill="#FFCB3D"/>
<path d="M121.427 456.437C120.983 453.635 122.166 451.929 124.976 451.321C136.566 450.68 146.878 451.539 155.912 453.898C164.947 456.258 170.209 458.317 171.698 460.077H124.976C122.993 460.077 121.427 458.471 121.427 456.437ZM213.469 437.477C214.82 435.913 218.978 429.187 218.978 429.187C218.978 429.187 214.405 443.055 211.65 451.658C211.806 450.928 209.624 456.767 209.364 455.255V455.203C209 453.483 207.597 452.231 205.83 452.127C204.167 452.023 202.4 451.971 200.53 451.971C198.139 451.971 195.697 452.127 193.306 452.44L189.824 441.856C193.202 443.577 197.048 444.202 200.789 443.89C202.088 443.785 203.336 443.525 204.583 443.16C208.013 442.169 211.079 440.136 213.469 437.477ZM200.968 424.68C201.705 425.505 202.907 425.79 203.948 425.32C204.896 424.769 205.399 423.703 205.198 422.62C205.113 422.164 205.415 421.726 205.872 421.641C206.329 421.557 206.767 421.858 206.852 422.315C207.186 424.119 206.333 425.902 204.748 426.798L204.69 426.828C203.281 427.486 201.691 427.303 200.486 426.478C200.11 427.38 199.36 428.151 198.35 428.607C196.319 429.378 194.043 428.619 193.019 426.827C192.788 426.424 192.929 425.911 193.332 425.681C193.735 425.451 194.249 425.591 194.479 425.994C195.085 427.053 196.481 427.519 197.704 427.057C198.63 426.638 199.159 425.781 199.064 424.942C199.061 424.936 199.058 424.931 199.055 424.926C198.812 424.503 198.763 423.974 198.812 423.499C198.86 423.129 199.055 422.812 199.298 422.653C199.785 422.284 200.515 422.495 200.808 423.023C201.065 423.532 201.086 424.151 200.968 424.68ZM186.766 424.703C187.357 425.813 186.815 427.398 186.224 427.504C185.781 427.557 185.239 426.975 185.042 426.606C184.796 426.183 184.747 425.654 184.796 425.179C184.845 424.809 185.042 424.492 185.288 424.333C185.781 423.964 186.47 424.175 186.766 424.703ZM212.014 415.744C212.561 416.853 212.064 418.333 211.467 418.544C211.019 418.597 210.472 418.016 210.273 417.646C210.025 417.223 209.975 416.695 210.025 416.219C210.074 415.849 210.273 415.532 210.522 415.374C211.019 415.004 211.716 415.215 212.014 415.744Z" fill="#DE6903"/>
<path d="M282.053 552.09H370.194C371.514 552.09 372.584 553.158 372.584 554.476C372.584 555.795 371.514 556.863 370.194 556.863H282.053C280.734 556.863 279.664 555.795 279.664 554.476C279.664 553.158 280.734 552.09 282.053 552.09ZM380.916 552.09H436.643C437.963 552.09 439.032 553.158 439.032 554.476C439.032 555.795 437.963 556.863 436.643 556.863H380.916C379.596 556.863 378.526 555.795 378.526 554.476C378.526 553.158 379.596 552.09 380.916 552.09Z" fill="#130057"/>
<path d="M436.022 552.09H381.033L385.442 523.12H424.63L436.022 552.09ZM371.676 552.603C371.269 552.282 370.755 552.09 370.197 552.09H282.056C281.969 552.09 281.883 552.095 281.798 552.104C281.767 551.86 281.753 551.571 281.759 551.224C281.82 550.854 281.827 550.43 281.943 550.007C282.636 547.473 283.477 545.79 285.935 544.294C288.393 542.798 290.902 541.462 293.516 540.286C303.159 535.837 306.454 535.893 312.794 531.812C315.418 530.106 317.83 528.132 320.084 525.996C321.586 524.571 324.833 522.258 329.825 519.055L368.509 519.171L371.676 552.603Z" fill="#474961"/>
<path d="M435.572 427.428C435.483 453.377 434.59 487.851 434.282 499.709C434.228 501.361 434.444 505.83 431.203 508.647C430.285 509.473 429.366 509.813 427.637 510.542C426.287 511.125 420.236 512.874 408.135 513.845C407.379 513.894 406.568 513.942 405.758 513.894C393.279 513.457 390.199 512.679 385.391 511.319C382.204 510.445 379.881 507.724 379.557 504.518C378.044 490.382 373.884 451.859 373.56 448.459C373.128 444.135 372.75 439.229 372.426 433.642L372.254 431.027L357.304 425.141C363.547 449.015 369.604 473.742 375.019 498.325C375.289 499.529 375.775 502.24 374.371 504.8C371.777 509.669 365.025 509.418 348.872 511.325C329.856 513.584 321.914 515.943 317.592 511.124C316.134 509.568 315.647 507.962 315.485 507.209C311.542 487.683 291.985 431.014 284.368 390.357C284.368 390.256 284.314 390.206 284.314 390.106C281.883 377.005 291.013 364.657 304.573 363.001C309.057 362.449 313.108 361.917 317.592 361.365C318.951 361.206 320.306 361.16 321.647 361.22L388.583 360.061C428.282 359.716 422.816 355.113 435.23 360.818C443.506 364.621 449.141 375.448 452.134 393.3C453.206 406.873 447.685 418.249 435.572 427.428Z" fill="#8F4AFF"/>
<path opacity="0.176986" d="M435.642 427.376C435.646 426.02 435.649 424.688 435.649 423.383C435.649 413.279 435.703 404.584 435.811 398.997C435.919 394.576 436.729 370.287 426.249 365.235C425.33 364.798 424.412 364.458 422.575 363.826C421.116 363.341 413.553 360.814 403.829 361.203C397.508 361.446 388 361.835 380.167 367.907C369.362 376.311 369.632 389.573 369.74 391.71L372.326 431.055L357.384 425.172C353.221 409.255 348.975 393.716 344.782 378.853C341.917 368.738 332.34 361.736 321.836 361.217L388.584 360.061C428.284 359.716 422.818 355.113 435.232 360.818C443.508 364.621 449.142 375.448 452.136 393.3C453.206 406.847 447.708 418.206 435.642 427.376Z" fill="#444444"/>
<path d="M378.698 261.144C379.348 260.864 380.012 260.614 380.691 260.397L392.22 256.553C392.888 256.431 393.554 256.324 394.216 256.233C395.125 255.192 396.975 254.309 400.185 253.325C411.581 249.768 426.127 255.683 431.308 268.935C435.823 280.484 441.821 293.529 441.262 293.701C441.143 293.737 438.526 295.608 434.939 296.766C440.126 316.318 442.921 329.406 443.323 336.031C444.125 349.226 439.682 358.07 424.624 359.191C409.566 360.312 388.609 361.891 386.146 357.515C384.563 354.702 377.121 337.332 363.821 305.406C358.848 307.013 356.251 307.836 356.03 307.875C355.336 307.995 352.976 300.23 351.44 287.952C349.677 273.863 358.232 262.113 372.409 259.71C374.753 259.303 376.849 259.781 378.698 261.144Z" fill="#130057"/>
<path opacity="0.176986" d="M378.732 261.168C364.631 267.01 357.629 287.018 362.325 301.813C362.844 303.025 363.355 304.219 363.858 305.393C358.861 307.008 356.252 307.835 356.03 307.874C355.336 307.994 352.976 300.229 351.44 287.951C349.677 273.862 358.232 262.112 372.409 259.709C374.768 259.299 376.875 259.786 378.732 261.168Z" fill="#444444"/>
<path d="M355.467 262.816C355.467 262.816 354.441 266.847 359.897 265.733C365.354 264.619 366.92 264.089 366.92 264.089L365.516 260.43L355.467 262.816Z" fill="#482D1F"/>
<path d="M386.317 259.982L396.365 306.837L398.752 294.117C411.343 296.581 421.59 297.813 429.492 297.812C429.535 297.812 429.577 297.812 429.619 297.812C427.839 304.614 423.62 334.132 417.056 345.553C408.757 359.99 403.914 361.576 391.66 360.396C390.406 360.275 389.222 360.054 388.105 359.732C388.641 359.906 389.193 360.052 389.762 360.171L326.367 361.144L326.362 361.161L326.169 361.147L325.924 361.151C325.808 361.153 325.694 361.137 325.586 361.104L299.648 359.2C295.486 358.895 291.655 356.822 289.125 353.507L286.21 349.689C285.519 348.783 285.072 347.716 284.911 346.589C284.392 342.947 286.927 339.574 290.573 339.056L298.323 337.953C303.635 337.197 309.028 337.207 314.338 337.982L330.338 340.318C342.487 336.505 358.698 331.496 362.745 330.633L357.72 307.339L363.661 305.01C365.526 309.262 367.281 313.257 368.926 316.993C367.062 299.241 367.272 279.635 365.031 262.219L359.413 262.34C356.063 263.666 349.04 265.893 348.284 261.173C348.284 261.173 357.576 257.408 364.113 254.65L364.599 254.226C365.031 253.854 365.409 253.642 365.95 253.483C366.058 253.43 366.166 253.43 366.274 253.43L366.632 253.379C365.66 253.451 364.977 253.434 364.74 253.408C360.221 253.211 354.682 245.222 352.018 233.578C351.772 232.641 351.687 231.69 351.548 230.744L350.867 221.273C350.679 219.159 351.087 217.048 352.003 215.159C352.092 214.939 352.186 214.771 352.279 214.603C352.609 214.042 352.938 213.482 353.278 213.027C354.58 211.211 356.194 209.848 357.894 208.85C361.942 206.799 366.668 206.287 369.333 206.377C369.715 206.397 370.913 206.454 372.6 206.522C374.194 206.758 375.719 206.84 377.285 206.759C378.151 206.738 378.862 207.422 378.938 208.267L379.605 221.839C379.61 221.939 379.636 222.081 379.684 222.264C385.124 220.054 389.019 221.315 391.368 226.046C394.892 233.143 391.701 231.607 390.134 233.499C389.005 234.82 387.599 235.473 386.654 235.821C386.477 235.858 386.297 235.96 386.138 236.1L390.37 236.14L391.118 239.058L391.393 242.761L394.174 256.31C394.174 256.31 390.252 258.458 386.317 259.982ZM376.869 251.919L376.551 250.397C376.418 250.452 376.283 250.508 376.145 250.565C371.649 252.442 371.909 252.313 371.595 252.447C370.922 252.653 370.266 252.818 369.643 252.949L374.485 252.263L376.869 251.919ZM421.051 523.273H385.55L386.314 511.556C390.677 512.77 394.101 513.482 405.833 513.893C406.643 513.941 407.453 513.893 408.21 513.844C413.984 513.38 418.38 512.74 421.546 512.134L424.638 523.119L421.051 523.273ZM366.972 509.134L368.518 519.17H329.63L332.195 513.482C336.546 512.985 342.009 512.148 348.946 511.324C357.151 510.355 362.931 509.943 366.972 509.134Z" fill="#DB9E75"/>
<path d="M380.167 251.511L378.125 251.792L376.983 251.957C376.944 251.946 376.906 251.935 376.867 251.924L376.547 250.392L382.345 247.938C381.564 249.703 380.838 250.894 380.167 251.511Z" fill="#482D1F"/>
<path d="M355.421 232.433C355.613 233.375 355.965 234.888 355.596 235.612C354.995 236.782 352.885 234.407 353.048 232.583C353.144 231.83 353.492 231.48 353.923 231.444C354.617 231.331 355.252 231.755 355.421 232.433ZM366.902 230.435C367.094 231.377 367.446 232.891 367.077 233.614C366.476 234.784 364.366 232.41 364.529 230.586C364.625 229.832 364.973 229.483 365.404 229.446C366.099 229.333 366.733 229.758 366.902 230.435Z" fill="#482D1F"/>
<path d="M358.097 232.318L358.075 237.643C358.13 238.297 358.68 238.863 359.314 238.807C359.688 238.804 359.927 238.784 360.884 238.682C361.311 238.636 361.604 238.607 361.951 238.577C362.248 238.551 362.468 238.293 362.443 238.001C362.417 237.71 362.156 237.494 361.858 237.52C361.504 237.551 361.205 237.581 360.771 237.627C359.853 237.725 359.63 237.744 359.263 237.749C359.241 237.749 359.159 237.664 359.154 237.597L359.177 232.319C359.178 232.026 358.937 231.788 358.639 231.788C358.341 231.787 358.098 232.025 358.097 232.318Z" fill="#482D1F"/>
<path d="M363.037 241.576C363.404 241.438 364.286 240.99 364.347 240.452C364.338 240.346 364.377 240.183 364.319 240.135C364.08 239.889 363.399 240.161 362.444 240.403C360.746 240.815 359.293 240.939 359.293 240.939C359.293 240.939 359.857 241.796 360.15 242.037C360.798 242.62 362.464 241.838 363.037 241.576Z" fill="#482D1F"/>
<path d="M376.081 226.511L377.872 225.914C378.895 225.572 379.417 227.078 378.394 227.42L376.603 228.018L375.253 228.468C375.406 228.962 375.509 229.478 375.557 230.012C375.926 234.155 372.804 237.808 368.583 238.171C364.911 238.486 361.617 236.207 360.58 232.88L359.634 233.026L358.853 233.147C359.012 237.137 355.951 240.587 351.856 240.938C347.635 241.301 343.915 238.236 343.545 234.092C343.176 229.949 346.298 226.296 350.519 225.933C354.304 225.608 357.709 228.046 358.621 231.572L359.382 231.455L359.634 233.026C358.706 232.352 358.703 232.329 358.7 232.306L357.853 231.691L358.621 231.572C358.659 231.72 358.693 231.869 358.722 232.02C358.792 231.748 359.004 231.513 359.382 231.455L360.272 231.317C359.907 227.177 363.028 223.528 367.246 223.166C370.353 222.899 373.189 224.489 374.617 227L376.081 226.511ZM358.105 233.263C357.658 233.332 357.24 233.029 357.176 232.589C357.114 232.159 357.415 231.759 357.853 231.691L359.382 231.455L360.272 231.317C360.272 231.32 360.272 231.322 360.272 231.325C360.32 231.863 360.425 232.383 360.58 232.88L359.634 233.026L358.105 233.263ZM359.634 233.026C359.247 233.086 358.968 232.918 358.819 232.671L359.634 233.026ZM368.442 236.586C371.771 236.3 374.233 233.419 373.942 230.151C373.651 226.882 370.716 224.465 367.387 224.751C364.058 225.037 361.596 227.918 361.887 231.186C362.178 234.454 365.113 236.872 368.442 236.586ZM350.66 227.518C347.331 227.804 344.869 230.685 345.16 233.954C345.451 237.222 348.386 239.639 351.715 239.353C355.044 239.067 357.506 236.186 357.215 232.918C357.205 232.808 357.192 232.698 357.176 232.589C356.723 229.478 353.864 227.243 350.66 227.518Z" fill="#482D1F"/>
<path opacity="0.2" d="M389.723 360.171L326.328 361.144L326.323 361.162L326.13 361.147L325.885 361.151C325.769 361.153 325.655 361.137 325.547 361.105L299.609 359.201C295.447 358.895 291.616 356.822 289.086 353.508L286.171 349.689C285.48 348.784 285.033 347.717 284.872 346.59C284.353 342.948 286.888 339.575 290.534 339.056L298.284 337.953C303.596 337.197 308.989 337.207 314.299 337.983L330.299 340.319C342.448 336.505 358.659 331.497 362.706 330.633L357.681 307.339L363.622 305.01C365.596 309.511 367.446 313.723 369.174 317.646C369.475 319.98 369.824 322.303 370.232 324.612C374.222 345.449 378.845 357.902 389.723 360.171Z" fill="#8C2A00"/>
<path d="M395.799 307.116C395.672 306.695 395.917 306.252 396.346 306.127C396.775 306.003 397.226 306.243 397.353 306.664L402.701 324.378C402.829 324.799 402.584 325.242 402.155 325.367C401.726 325.492 401.275 325.251 401.148 324.83L395.799 307.116ZM429.647 298.462C429.2 298.459 428.84 298.1 428.843 297.661C428.846 297.221 429.212 296.868 429.659 296.871C431.915 296.888 434.031 296.565 436.012 295.904C436.436 295.762 436.896 295.985 437.04 296.401C437.184 296.817 436.957 297.269 436.533 297.41C434.377 298.13 432.081 298.48 429.647 298.462Z" fill="#482D1F"/>
<path d="M384.799 235.628C385.62 235.394 388.05 234.87 389.542 233.069C391.113 231.23 391.886 228.342 390.726 225.674C389.684 223.101 386.907 221.157 384.329 221.432C382.88 221.609 381.758 222.398 381.606 222.517C379.83 223.894 379.12 225.659 379.12 225.659L378.691 226.891C378.477 226.616 378.272 226.358 378.077 226.121C373.942 222.324 371.555 219.689 367.367 215.896C365.261 216.609 351.742 221.333 350.727 220.888C350.727 215.5 352.734 213.765 353.073 213.31C354.375 211.494 356.28 209.733 357.981 208.735C362.028 206.684 366.754 206.171 369.42 206.262C369.801 206.282 370.999 206.339 372.686 206.407C373.175 206.418 373.664 206.429 374.261 206.431C375.67 206.417 376.756 206.43 377.406 206.428C385.633 206.253 388.733 205.135 393.017 206.95C393.266 207.063 393.618 207.226 394.034 207.45C394.318 206.717 394.651 206.034 394.981 205.402C404.038 188.173 415.039 192.073 415.039 192.137C415.039 192.201 423.375 192.201 425.507 200.547C425.72 201.376 427.214 207.234 424.825 212.064C421.619 218.383 412.059 222.274 401.183 219.618C401.317 221.466 401.187 222.98 401.131 223.768C400.538 229.889 397.14 233.747 396.146 235.377C394.822 237.549 393.185 239.735 391.236 241.935C388.806 240.501 386.946 238.829 385.655 236.917C385.375 236.496 385.089 236.065 384.799 235.628Z" fill="#482D1F"/>
<path d="M277.104 346.72C283.202 340.769 295.651 336.104 316.22 347.86C319.357 349.594 318.213 355.045 314.735 355.036L278.897 354.795C276.204 354.813 275.07 348.722 277.104 346.72Z" fill="#474961"/>
<path d="M205.44 460.076H213.065C216.996 461.29 219.476 463.863 220.504 467.796C221.532 471.729 219.052 475.502 213.065 479.116L213.003 479.102L213.008 479.116H118.821C112.834 475.502 110.354 471.729 111.382 467.796C112.41 463.863 114.89 461.29 118.821 460.076H205.44Z" fill="#3ABF7C"/>
<path d="M243.232 225.467H71.9016C65.1739 225.467 59.6797 220.492 59.6797 214.401V112.217C59.6797 106.125 65.1739 101.15 71.9016 101.15H243.232C249.96 101.15 255.454 106.125 255.454 112.217V214.35C255.454 220.492 249.96 225.467 243.232 225.467Z" fill="#F2F6FB"/>
<path d="M59.7344 100.48C59.7344 94.2929 64.7552 89.2773 70.9479 89.2773H244.183C250.377 89.2773 255.397 94.2959 255.397 100.48V113.357H59.7344V100.48Z" fill="#E1E5F0"/>
<path d="M89.8721 158.716H111.457C113.237 158.716 114.68 160.158 114.68 161.936C114.68 163.715 113.237 165.156 111.457 165.156H89.8721C88.0917 165.156 86.6484 163.715 86.6484 161.936C86.6484 160.158 88.0917 158.716 89.8721 158.716ZM89.8721 194.555H111.457C113.237 194.555 114.68 195.997 114.68 197.775C114.68 199.554 113.237 200.995 111.457 200.995H89.8721C88.0917 200.995 86.6484 199.554 86.6484 197.775C86.6484 195.997 88.0917 194.555 89.8721 194.555ZM122.95 158.716H144.534C146.315 158.716 147.758 160.158 147.758 161.936C147.758 163.715 146.315 165.156 144.534 165.156H122.95C121.169 165.156 119.726 163.715 119.726 161.936C119.726 160.158 121.169 158.716 122.95 158.716ZM122.95 194.555H144.534C146.315 194.555 147.758 195.997 147.758 197.775C147.758 199.554 146.315 200.995 144.534 200.995H122.95C121.169 200.995 119.726 199.554 119.726 197.775C119.726 195.997 121.169 194.555 122.95 194.555ZM156.027 158.716H177.612C179.392 158.716 180.836 160.158 180.836 161.936C180.836 163.715 179.392 165.156 177.612 165.156H156.027C154.247 165.156 152.804 163.715 152.804 161.936C152.804 160.158 154.247 158.716 156.027 158.716ZM156.027 194.555H177.612C179.392 194.555 180.836 195.997 180.836 197.775C180.836 199.554 179.392 200.995 177.612 200.995H156.027C154.247 200.995 152.804 199.554 152.804 197.775C152.804 195.997 154.247 194.555 156.027 194.555ZM89.8721 140.797H129.958C131.738 140.797 133.181 142.238 133.181 144.017C133.181 145.795 131.738 147.237 129.958 147.237H89.8721C88.0917 147.237 86.6484 145.795 86.6484 144.017C86.6484 142.238 88.0917 140.797 89.8721 140.797ZM180.695 140.797H225.827C227.607 140.797 229.05 142.238 229.05 144.017C229.05 145.795 227.607 147.237 225.827 147.237H180.695C178.915 147.237 177.472 145.795 177.472 144.017C177.472 142.238 178.915 140.797 180.695 140.797ZM180.695 176.636H225.827C227.607 176.636 229.05 178.078 229.05 179.856C229.05 181.634 227.607 183.076 225.827 183.076H180.695C178.915 183.076 177.472 181.634 177.472 179.856C177.472 178.078 178.915 176.636 180.695 176.636ZM141.451 176.636H149.58C151.36 176.636 152.804 178.078 152.804 179.856C152.804 181.634 151.36 183.076 149.58 183.076H141.451C139.67 183.076 138.227 181.634 138.227 179.856C138.227 178.078 139.67 176.636 141.451 176.636ZM161.073 140.797H169.202C170.983 140.797 172.426 142.238 172.426 144.017C172.426 145.795 170.983 147.237 169.202 147.237H161.073C159.293 147.237 157.849 145.795 157.849 144.017C157.849 142.238 159.293 140.797 161.073 140.797ZM189.105 158.716H225.827C227.607 158.716 229.05 160.158 229.05 161.936C229.05 163.715 227.607 165.156 225.827 165.156H189.105C187.325 165.156 185.881 163.715 185.881 161.936C185.881 160.158 187.325 158.716 189.105 158.716Z" fill="#E1E5F0"/>
<path d="M89.8721 176.635H129.958C131.738 176.635 133.181 178.076 133.181 179.855C133.181 181.633 131.738 183.075 129.958 183.075H89.8721C88.0917 183.075 86.6484 181.633 86.6484 179.855C86.6484 178.076 88.0917 176.635 89.8721 176.635ZM161.073 176.635H169.202C170.983 176.635 172.426 178.076 172.426 179.855C172.426 181.633 170.983 183.075 169.202 183.075H161.073C159.293 183.075 157.849 181.633 157.849 179.855C157.849 178.076 159.293 176.635 161.073 176.635Z" fill="#A339FF"/>
<path d="M141.458 140.797H149.587C151.368 140.797 152.811 142.238 152.811 144.017C152.811 145.795 151.368 147.237 149.587 147.237H141.458C139.678 147.237 138.234 145.795 138.234 144.017C138.234 142.238 139.678 140.797 141.458 140.797ZM189.112 194.555H225.834C227.614 194.555 229.058 195.997 229.058 197.775C229.058 199.554 227.614 200.995 225.834 200.995H189.112C187.332 200.995 185.889 199.554 185.889 197.775C185.889 195.997 187.332 194.555 189.112 194.555Z" fill="#130057"/>
<path d="M108.794 477.917C108.887 477.911 108.98 477.908 109.075 477.908H220.641C222.809 477.908 224.566 479.663 224.566 481.827C224.566 483.992 222.809 485.747 220.641 485.747H109.075C108.98 485.747 108.887 485.744 108.794 485.738V553.226C108.794 555.39 107.037 557.145 104.87 557.145C102.702 557.145 100.945 555.39 100.945 553.226L100.945 358.911C100.945 357.025 102.279 355.449 104.056 355.075C104.559 354.841 105.12 354.711 105.711 354.711H439.29C441.458 354.711 443.215 356.466 443.215 358.631C443.215 360.796 441.458 362.551 439.29 362.551H108.794V477.917Z" fill="#D8DEED"/>
<path d="M186.255 346.314L191.647 324.585H151.174C146.969 324.585 143.493 321.393 143.493 317.529V255.987C143.437 252.067 146.857 248.875 151.118 248.875H274.29C278.495 248.875 281.971 252.067 281.971 255.931V317.529C281.971 321.393 278.495 324.585 274.29 324.585H224.968L222.742 346.314H237.345C239.588 346.314 241.326 348.105 241.326 350.289C241.326 352.529 239.532 354.265 237.345 354.265H174.834C172.591 354.265 170.853 352.473 170.853 350.289C170.741 348.105 172.591 346.314 174.834 346.314H186.255Z" fill="#474961"/>
<path fill-rule="evenodd" clip-rule="evenodd" d="M226.635 308.748L226.801 346.37H222.781L226.635 308.748Z" fill="white"/>
</svg>