<svg width="46" height="45" viewBox="0 0 46 45" fill="none" xmlns="http://www.w3.org/2000/svg">
<rect x="0.5" width="45" height="45" rx="22.5" fill="#333333"/>
<rect x="1" y="0.5" width="44" height="44" rx="22" stroke="white" stroke-opacity="0.17"/>
<path d="M20.1526 22.4879L22.9997 21.6879C23.4468 21.5703 23.7291 21.1703 23.7291 20.7232C23.7291 20.2761 23.4232 19.8761 22.9997 19.7585L20.1291 18.9585L19.329 16.0878C19.2114 15.6408 18.8114 15.3584 18.3643 15.3584C17.9172 15.3584 17.5172 15.6643 17.3996 16.0878L16.5996 18.9585L13.7289 19.7585C13.2819 19.8761 12.9995 20.2761 12.9995 20.7232C12.9995 21.1703 13.3054 21.5703 13.7289 21.6879L16.5996 22.4879L17.3996 25.3586C17.5172 25.8056 17.9172 26.088 18.3643 26.088C18.8114 26.088 19.2114 25.7821 19.329 25.3586L20.1526 22.4879ZM18.3643 25.0762L17.5643 22.2056C17.4702 21.8762 17.2114 21.5938 16.8584 21.4997L13.9878 20.6997L16.8819 19.8997C17.2114 19.8055 17.4937 19.5467 17.5878 19.1938L18.3878 16.3231L19.1643 19.2173C19.2585 19.5467 19.5173 19.8291 19.8702 19.9232L22.7409 20.7232L19.8702 21.5232C19.5408 21.6173 19.2585 21.8762 19.1643 22.2291L18.3643 25.0762Z" fill="white"/>
<path d="M29.2824 27.3351L26.4118 26.5351L25.6118 23.6645C25.4941 23.2174 25.0941 22.9351 24.647 22.9351C24.2 22.9351 23.8 23.2409 23.6823 23.6645L22.8823 26.5351L20.0117 27.3351C19.5646 27.4528 19.2822 27.8528 19.2822 28.2999C19.2822 28.7469 19.5881 29.1469 20.0117 29.2646L22.8823 30.0646L23.6823 32.9352C23.8 33.3823 24.2 33.6647 24.647 33.6647C25.0941 33.6647 25.4941 33.3588 25.6118 32.9352L26.4118 30.0646L29.2824 29.2646C29.7295 29.1469 30.0118 28.7469 30.0118 28.2999C30.0354 27.8528 29.7295 27.4763 29.2824 27.3351ZM26.1529 29.1234C25.8235 29.2175 25.5412 29.4764 25.447 29.8293L24.647 32.6764L23.847 29.8058C23.7529 29.4764 23.4941 29.194 23.1411 29.0999L20.2705 28.2999L23.1411 27.4998C23.4705 27.4057 23.7529 27.1469 23.847 26.794L24.647 23.9468L25.447 26.8175C25.5412 27.1469 25.8 27.4293 26.1529 27.5234L29.0236 28.3234L26.1529 29.1234Z" fill="white"/>
<path d="M32.2707 15.735L29.4 14.935L28.6 12.0644C28.4824 11.6173 28.0824 11.335 27.6353 11.335C27.1882 11.335 26.7882 11.6408 26.6706 12.0644L25.8706 14.935L22.9999 15.735C22.5529 15.8527 22.2705 16.2527 22.2705 16.6998C22.2705 17.1468 22.5764 17.5468 22.9999 17.6645L25.8706 18.4645L26.6706 21.3351C26.7882 21.7822 27.1882 22.0646 27.6353 22.0646C28.0824 22.0646 28.4824 21.7587 28.6 21.3351L29.4 18.4645L32.2707 17.6645C32.7178 17.5468 33.0001 17.1468 33.0001 16.6998C33.0001 16.2527 32.7178 15.8527 32.2707 15.735ZM29.1412 17.5233C28.8118 17.6174 28.5294 17.8763 28.4353 18.2292L27.6353 21.0998L26.8353 18.2292C26.7412 17.8998 26.4823 17.6174 26.1294 17.5233L23.2588 16.7233L26.1294 15.9233C26.4588 15.8292 26.7412 15.5703 26.8353 15.2174L27.6353 12.3467L28.4353 15.2174C28.5294 15.5468 28.7883 15.8292 29.1412 15.9233L32.0119 16.7233L29.1412 17.5233Z" fill="white"/>
</svg>