<svg width="33" height="32" viewBox="0 0 33 32" fill="none" xmlns="http://www.w3.org/2000/svg">
<rect x="0.5" width="32" height="32" rx="16" fill="#333333"/>
<rect x="0.855556" y="0.355556" width="31.2889" height="31.2889" rx="15.6444" stroke="white" stroke-opacity="0.17" stroke-width="0.711111"/>
<path d="M14.4743 15.9918L16.4989 15.4229C16.8169 15.3392 17.0176 15.0548 17.0176 14.7368C17.0176 14.4189 16.8001 14.1345 16.4989 14.0508L14.4576 13.4819L13.8887 11.4406C13.805 11.1227 13.5206 10.9219 13.2027 10.9219C12.8848 10.9219 12.6003 11.1394 12.5166 11.4406L11.9477 13.4819L9.9064 14.0508C9.58848 14.1345 9.3877 14.4189 9.3877 14.7368C9.3877 15.0548 9.60522 15.3392 9.9064 15.4229L11.9477 15.9918L12.5166 18.0331C12.6003 18.351 12.8848 18.5518 13.2027 18.5518C13.5206 18.5518 13.805 18.3343 13.8887 18.0331L14.4743 15.9918ZM13.2027 17.8323L12.6338 15.791C12.5668 15.5567 12.3828 15.3559 12.1318 15.289L10.0905 14.7201L12.1485 14.1512C12.3828 14.0843 12.5836 13.9002 12.6505 13.6492L13.2194 11.6079L13.7716 13.666C13.8385 13.9002 14.0226 14.101 14.2735 14.1679L16.3149 14.7368L14.2735 15.3057C14.0393 15.3727 13.8385 15.5567 13.7716 15.8077L13.2027 17.8323Z" fill="white"/>
<path d="M20.9657 19.438L18.9244 18.8691L18.3555 16.8278C18.2718 16.5099 17.9874 16.3091 17.6695 16.3091C17.3515 16.3091 17.0671 16.5266 16.9834 16.8278L16.4145 18.8691L14.3732 19.438C14.0553 19.5217 13.8545 19.8061 13.8545 20.1241C13.8545 20.442 14.072 20.7264 14.3732 20.8101L16.4145 21.379L16.9834 23.4203C17.0671 23.7382 17.3515 23.939 17.6695 23.939C17.9874 23.939 18.2718 23.7215 18.3555 23.4203L18.9244 21.379L20.9657 20.8101C21.2836 20.7264 21.4844 20.442 21.4844 20.1241C21.5012 19.8061 21.2836 19.5384 20.9657 19.438ZM18.7403 20.7097C18.5061 20.7766 18.3053 20.9607 18.2384 21.2117L17.6695 23.2363L17.1006 21.1949C17.0336 20.9607 16.8496 20.7599 16.5986 20.693L14.5573 20.1241L16.5986 19.5552C16.8328 19.4882 17.0336 19.3042 17.1006 19.0532L17.6695 17.0286L18.2384 19.0699C18.3053 19.3042 18.4893 19.505 18.7403 19.5719L20.7817 20.1408L18.7403 20.7097Z" fill="white"/>
<path d="M23.0932 11.1895L21.0518 10.6206L20.4829 8.57925C20.3993 8.26133 20.1148 8.06055 19.7969 8.06055C19.479 8.06055 19.1945 8.27807 19.1109 8.57925L18.542 10.6206L16.5006 11.1895C16.1827 11.2732 15.9819 11.5576 15.9819 11.8755C15.9819 12.1934 16.1995 12.4779 16.5006 12.5615L18.542 13.1304L19.1109 15.1718C19.1945 15.4897 19.479 15.6905 19.7969 15.6905C20.1148 15.6905 20.3993 15.473 20.4829 15.1718L21.0518 13.1304L23.0932 12.5615C23.4111 12.4779 23.6119 12.1934 23.6119 11.8755C23.6119 11.5576 23.4111 11.2732 23.0932 11.1895ZM20.8678 12.4612C20.6335 12.5281 20.4327 12.7121 20.3658 12.9631L19.7969 15.0045L19.228 12.9631C19.1611 12.7289 18.977 12.5281 18.726 12.4612L16.6847 11.8923L18.726 11.3234C18.9603 11.2564 19.1611 11.0724 19.228 10.8214L19.7969 8.78004L20.3658 10.8214C20.4327 11.0556 20.6168 11.2564 20.8678 11.3234L22.9091 11.8923L20.8678 12.4612Z" fill="white"/>
</svg>