<svg width="22" height="22" viewBox="0 0 22 22" fill="none" xmlns="http://www.w3.org/2000/svg">
<path d="M4.5 18.9992L2 11.7492L1.02078 6.85306C1.00696 6.78396 1 6.71366 1 6.64321V6.56276C1 5.87766 1.89119 5.61216 2.26612 6.18561C2.2938 6.22791 2.31833 6.27221 2.33952 6.31811L4.30535 10.5775C4.4151 10.8152 4.6897 10.928 4.9349 10.8361L5 10.8117L4.06455 3.97128C4.0232 3.6688 4.10275 3.36219 4.2859 3.11795C4.5422 2.7762 5.02705 2.70694 5.3688 2.96325L5.43535 3.01317C5.6404 3.16698 5.7948 3.3786 5.87865 3.62084L7.9345 9.56001C7.9737 9.67321 8.08035 9.74916 8.20015 9.74916C8.36255 9.74916 8.49115 9.61201 8.4807 9.44996L8.03925 2.60781C8.0143 2.22092 8.15715 1.84203 8.43125 1.56789C8.75505 1.24411 9.2705 1.21557 9.62805 1.50161L9.7983 1.6378C10.089 1.87036 10.2829 2.20272 10.3421 2.57025L11.4614 9.51026C11.4836 9.64796 11.6025 9.74916 11.742 9.74916C11.8883 9.74916 12.0107 9.63801 12.0248 9.49236L12.6889 2.63004C12.728 2.22672 12.9285 1.85635 13.245 1.60322L13.3482 1.52063C13.7193 1.22376 14.2542 1.25338 14.5903 1.58942C14.8526 1.85177 15 2.2076 15 2.57863V12.3333C15 12.7289 15.4376 12.9678 15.7704 12.7539L18.0059 11.3168C18.3285 11.1094 18.7039 10.9992 19.0874 10.9992H20.1217C20.5093 10.9992 20.7494 11.4211 20.5515 11.7544L16.25 18.9992C16.25 18.9992 14.5 20.9992 10.5 20.9992C6.5 20.9992 4.83335 19.6658 4.5 18.9992Z" stroke="#FAFAFA" stroke-width="1.5" stroke-linecap="round" stroke-linejoin="round"/>
</svg>